<?xml version="1.0" standalone="no"?>
<!DOCTYPE svg PUBLIC "-//W3C//DTD SVG 20010904//EN"
 "http://www.w3.org/TR/2001/REC-SVG-20010904/DTD/svg10.dtd">
<svg version="1.0" xmlns="http://www.w3.org/2000/svg"
 width="408.000000pt" height="612.000000pt" viewBox="0 0 408.000000 612.000000"
 preserveAspectRatio="xMidYMid meet">

<g transform="translate(0.000000,612.000000) scale(0.100000,-0.100000)"
fill="#000000" stroke="none">
<path d="M927 5249 c-9 -5 -24 -23 -32 -39 -19 -36 -20 -64 -2 -54 7 5 6 0 -3
-11 -14 -17 -13 -17 10 -11 20 6 22 5 8 -4 -14 -8 -15 -16 -6 -40 5 -17 14
-27 19 -24 5 3 6 -2 3 -10 -7 -19 26 -76 44 -76 7 0 11 4 8 9 -3 5 2 8 12 7
11 -1 16 5 14 18 -2 11 2 16 9 14 14 -5 22 -38 8 -38 -4 0 -6 -8 -3 -17 5 -14
4 -15 -4 -4 -6 8 -18 11 -31 6 -22 -7 -29 -25 -10 -25 5 0 8 -4 5 -8 -2 -4 -1
-14 5 -22 6 -11 9 -12 9 -2 0 7 5 10 11 6 7 -4 7 1 -1 16 -6 12 -9 24 -6 28 3
3 6 0 6 -6 0 -6 9 -10 19 -9 12 1 17 6 13 17 -3 8 -2 12 3 8 4 -4 14 -1 21 7
16 16 48 9 37 -8 -4 -6 2 -8 16 -4 18 4 21 2 16 -11 -5 -14 -4 -15 6 -4 7 6
18 12 23 12 6 0 4 -5 -4 -10 -11 -7 -12 -12 -4 -20 20 -20 26 6 13 49 -7 23
-16 38 -22 34 -6 -3 -7 -1 -4 4 8 13 -34 143 -58 179 -9 14 -21 22 -27 18 -7
-4 -8 -3 -4 4 16 26 -79 43 -117 21z m31 -90 c3 -12 2 -12 -6 0 -7 9 -12 10
-16 2 -4 -6 -1 -14 7 -17 14 -5 19 -34 6 -34 -7 0 -20 29 -25 56 -3 17 29 10
34 -7z m142 -63 c0 -2 -7 -7 -16 -10 -8 -3 -12 -2 -9 4 6 10 25 14 25 6z"/>
<path d="M2431 5174 c0 -11 3 -14 6 -6 3 7 2 16 -1 19 -3 4 -6 -2 -5 -13z"/>
<path d="M1678 5120 c-43 -13 -84 -47 -102 -84 -9 -20 -21 -38 -26 -41 -6 -4
-8 -10 -6 -14 3 -4 -14 -8 -36 -10 -37 -2 -45 2 -83 43 -36 40 -47 46 -81 46
-54 0 -115 -37 -137 -82 -22 -45 -16 -58 26 -58 21 0 27 3 19 9 -10 6 -10 10
2 20 10 8 16 9 21 1 3 -5 18 -10 32 -10 18 0 24 4 19 15 -6 16 5 18 41 9 12
-3 23 -15 25 -26 4 -31 36 -47 51 -27 7 9 19 14 27 11 13 -5 13 -3 0 14 -14
19 -14 19 7 1 14 -12 23 -15 28 -8 3 6 12 11 18 11 8 0 7 -3 -2 -9 -20 -13 -4
-31 26 -31 21 0 23 -3 14 -14 -14 -17 10 -29 43 -20 14 3 27 -1 36 -11 9 -11
22 -14 42 -10 23 5 27 4 22 -9 -4 -12 0 -16 15 -16 12 0 21 5 21 10 0 6 5 10
10 10 6 0 10 -7 10 -15 0 -20 17 -19 29 3 9 16 11 16 23 0 19 -25 99 -52 109
-37 5 8 11 5 20 -10 17 -25 44 -27 58 -3 9 15 10 15 11 1 0 -18 27 -30 73 -35
16 -1 25 2 21 8 -4 6 3 5 15 -1 12 -7 26 -9 31 -6 5 3 18 -3 29 -14 19 -19 19
-19 -2 -28 -15 -7 -8 -9 31 -8 31 1 52 -3 52 -9 0 -7 3 -8 8 -1 8 12 53 15 46
3 -3 -4 3 -9 13 -9 18 -1 24 0 56 8 12 4 17 0 17 -16 0 -11 4 -21 10 -21 5 0
8 6 6 13 -1 6 -1 9 1 5 9 -16 21 -7 16 12 -3 11 0 20 6 20 6 0 12 -4 12 -10 5
-35 2 -45 -11 -46 -42 -3 -50 -5 -50 -12 0 -5 10 -8 23 -7 13 1 27 -6 35 -19
13 -21 13 -21 9 0 -3 15 1 20 17 20 13 -1 21 5 21 16 0 10 6 23 14 30 9 8 11
9 7 1 -3 -6 -2 -14 4 -18 16 -10 12 -22 -10 -28 -11 -3 -20 -11 -20 -17 0 -10
4 -9 15 0 13 10 18 11 28 1 9 -10 9 -11 -4 -6 -10 4 -16 0 -16 -10 0 -13 10
-15 58 -12 45 3 56 1 52 -10 -6 -16 -20 -17 -26 0 -3 6 -4 2 -4 -10 1 -12 5
-19 9 -17 15 10 31 -8 17 -18 -11 -8 -10 -9 3 -5 9 3 19 1 21 -6 2 -7 8 -9 12
-4 5 4 0 14 -11 22 -10 8 -14 15 -7 15 6 0 18 -9 26 -20 8 -12 20 -18 30 -15
8 4 18 2 22 -4 4 -8 13 -8 28 0 20 9 20 9 5 -4 -10 -8 -18 -21 -18 -29 0 -16
29 -20 47 -6 7 5 14 5 18 -2 3 -5 0 -10 -7 -10 -10 0 -9 -3 2 -9 8 -6 18 -7
24 -4 5 3 6 1 2 -5 -4 -6 -14 -8 -23 -5 -12 5 -15 2 -11 -9 4 -9 1 -21 -5 -28
-7 -8 1 -4 17 9 23 17 31 19 38 9 6 -8 7 -4 3 11 -5 15 -3 21 3 17 6 -3 14 3
17 15 4 11 22 27 41 35 30 13 38 12 63 -1 16 -8 31 -20 34 -27 3 -7 6 -4 6 7
2 40 37 81 81 94 l43 13 -5 67 c-9 125 -73 221 -177 269 -74 34 -153 40 -227
16 -63 -20 -173 -97 -189 -132 -5 -12 -13 -22 -17 -22 -5 0 -8 -5 -8 -10 0 -6
6 -10 13 -8 15 3 87 -33 87 -44 0 -10 -372 -15 -385 -5 -5 4 0 16 14 30 13 12
20 15 15 7 -6 -12 -2 -11 19 3 14 9 34 17 44 17 10 0 27 13 38 29 11 17 27 32
37 34 27 7 22 27 -20 82 -56 74 -101 97 -187 93 -72 -4 -96 -13 -164 -62 -22
-15 -50 -28 -63 -28 -35 0 -84 9 -78 14 3 3 0 11 -6 19 -6 8 -14 28 -18 44
-24 100 -90 149 -168 125z m-443 -139 c3 -5 1 -12 -5 -16 -5 -3 -10 1 -10 9 0
18 6 21 15 7z m75 -7 c0 -2 -7 -4 -15 -4 -8 0 -15 4 -15 10 0 5 7 7 15 4 8 -4
15 -8 15 -10z m263 -1 c-4 -10 -2 -14 5 -9 6 3 14 1 18 -6 4 -7 4 -10 -1 -6
-4 4 -14 3 -20 -2 -9 -8 -12 -4 -10 12 3 26 3 28 10 28 2 0 1 -7 -2 -17z m242
-113 c3 -5 1 -10 -4 -10 -6 0 -11 5 -11 10 0 6 2 10 4 10 3 0 8 -4 11 -10z
m105 -26 c0 -2 -11 -4 -25 -4 -14 0 -25 4 -25 9 0 4 11 6 25 3 14 -2 25 -6 25
-8z m560 -198 c-14 -14 -22 -2 -14 18 5 14 9 15 15 4 4 -7 4 -17 -1 -22z m300
-145 c0 -14 -29 -21 -36 -9 -4 7 -3 8 4 4 7 -4 12 -2 12 3 0 6 5 11 10 11 6 0
10 -4 10 -9z"/>
<path d="M1024 4932 c3 -6 -3 -17 -15 -25 -17 -13 -19 -19 -10 -36 7 -12 14
-21 17 -21 3 0 2 5 -1 10 -4 6 -1 18 6 26 17 21 20 42 7 51 -6 3 -8 1 -4 -5z
m6 -26 c0 -2 -8 -10 -17 -17 -16 -13 -17 -12 -4 4 13 16 21 21 21 13z"/>
<path d="M1142 4913 c14 -17 25 -16 31 1 4 10 -2 13 -18 12 -17 -1 -21 -4 -13
-13z"/>
<path d="M1480 4907 c0 -19 26 -40 40 -32 13 8 5 22 -21 35 -15 8 -19 7 -19
-3z"/>
<path d="M660 4829 c-24 -10 -40 -26 -40 -41 0 -5 9 1 20 12 11 11 26 20 34
20 8 0 18 5 21 10 8 12 -2 12 -35 -1z"/>
<path d="M710 4826 c0 -10 7 -13 21 -11 28 6 58 -15 52 -34 -4 -13 -3 -13 5
-3 13 19 17 19 40 -1 12 -11 18 -26 15 -35 -4 -15 -3 -15 6 -2 10 15 12 13 15
-12 0 -6 8 -13 16 -15 13 -4 13 -3 0 6 -8 6 -11 11 -6 11 12 0 -39 55 -74 80
-37 26 -90 36 -90 16z"/>
<path d="M965 4826 c-20 -15 -17 -45 7 -60 24 -15 53 13 44 42 -9 26 -30 34
-51 18z"/>
<path d="M2106 4732 c-12 -11 -5 -22 13 -22 10 0 23 6 29 13 8 9 4 12 -13 13
-13 1 -26 -1 -29 -4z"/>
<path d="M2470 4596 c0 -8 4 -17 9 -20 5 -4 7 3 4 14 -6 23 -13 26 -13 6z"/>
<path d="M2528 4563 c7 -3 16 -2 19 1 4 3 -2 6 -13 5 -11 0 -14 -3 -6 -6z"/>
<path d="M2530 4540 c-9 -6 -10 -10 -3 -10 6 0 15 5 18 10 8 12 4 12 -15 0z"/>
<path d="M2660 4498 c0 -5 13 -7 30 -6 16 1 27 5 24 8 -9 8 -54 7 -54 -2z"/>
<path d="M3265 4392 c-17 -12 -16 -32 3 -33 9 0 28 -2 42 -3 14 -2 28 1 31 7
9 14 29 -1 29 -21 0 -9 -5 -24 -10 -32 -7 -11 -9 -6 -6 18 3 32 3 33 -18 15
-11 -10 -23 -20 -26 -22 -3 -2 6 0 20 4 24 7 24 7 8 -12 -10 -11 -18 -24 -18
-29 0 -5 5 -2 11 6 8 11 12 12 16 3 5 -14 24 -18 21 -5 -3 15 15 42 28 42 12
0 12 -4 4 -21 -7 -11 -9 -23 -6 -27 3 -3 6 0 6 6 0 7 12 12 26 12 16 0 23 4
18 12 -4 6 -3 8 4 5 12 -8 10 -32 -3 -44 -4 -4 -5 -2 -1 4 5 9 2 11 -8 7 -18
-7 -22 -24 -5 -24 6 0 20 5 32 12 20 10 21 10 8 -6 -11 -13 -11 -20 -3 -28 15
-15 15 -29 1 -25 -6 1 -14 -5 -16 -13 -4 -13 -3 -13 6 0 10 14 16 7 12 -13 -1
-5 3 -6 9 -2 6 3 8 10 5 15 -3 5 -1 11 3 14 15 9 8 -50 -8 -70 -8 -11 -3 -9
13 5 15 14 25 27 22 29 -3 3 5 15 18 26 35 34 54 64 21 34 -17 -16 -33 -28
-36 -28 -3 0 -8 13 -11 29 -3 16 -13 36 -22 45 -9 9 -13 16 -9 16 14 0 -32 43
-71 65 -42 24 -123 40 -140 27z"/>
<path d="M3479 4383 c-13 -16 -12 -17 4 -4 16 13 21 21 13 21 -2 0 -10 -8 -17
-17z"/>
<path d="M3280 4330 c-20 -16 -21 -19 -5 -13 22 8 51 33 38 33 -4 0 -19 -9
-33 -20z"/>
<path d="M3590 4279 c0 -5 5 -7 10 -4 6 3 10 8 10 11 0 2 -4 4 -10 4 -5 0 -10
-5 -10 -11z"/>
<path d="M1228 4219 c-10 -5 -15 -16 -12 -24 6 -14 -6 -20 -29 -16 -15 3 -77
-40 -72 -49 3 -5 37 -8 75 -8 62 1 74 4 102 29 38 32 48 30 25 -5 l-17 -25 44
2 c24 1 42 6 39 10 -2 4 6 5 20 2 16 -4 26 -2 30 7 3 10 -5 14 -30 14 -25 0
-41 7 -53 22 -10 12 -24 22 -32 22 -7 0 -22 7 -32 15 -23 17 -34 18 -58 4z"/>
<path d="M494 4136 c-10 -26 4 -48 28 -44 17 2 23 10 23 28 0 18 -6 26 -23 28
-13 2 -25 -3 -28 -12z"/>
<path d="M388 4099 c-11 -6 -18 -22 -18 -39 0 -26 10 -36 73 -76 39 -26 77
-53 83 -60 5 -7 30 -15 55 -19 45 -7 105 -31 114 -46 3 -4 -9 -4 -26 1 -23 7
-41 5 -68 -7 l-36 -16 42 -7 c66 -10 59 -16 -17 -16 -63 1 -70 3 -75 24 -6 25
-36 30 -55 7 -6 -8 -9 -23 -6 -33 5 -15 -1 -22 -24 -32 -65 -27 -32 -33 80
-14 69 11 120 10 120 -2 0 -6 -10 -14 -22 -18 -13 -3 -39 -19 -58 -36 -35 -30
-35 -30 -7 -24 17 4 27 2 27 -5 0 -6 -4 -11 -9 -11 -10 0 -20 -23 -28 -60 -2
-13 -6 -26 -8 -28 -3 -4 -98 53 -134 80 -31 24 -41 15 -76 -72 -28 -69 -28
-71 -9 -85 21 -16 199 -104 252 -125 39 -15 52 -5 52 42 0 15 5 39 10 54 7 17
7 31 1 37 -11 11 -3 39 9 32 5 -3 14 8 22 25 7 16 16 30 20 30 5 0 8 7 8 15 0
9 15 44 33 78 l32 62 3 -116 3 -115 62 3 c34 2 80 12 102 23 22 10 105 35 185
55 80 20 179 47 220 60 52 17 93 24 135 22 33 -1 103 6 155 15 282 51 572 49
844 -8 76 -15 79 -15 98 3 19 20 18 20 -83 32 -472 57 -959 62 -1090 11 -30
-12 -103 -34 -164 -49 -171 -44 -406 -111 -426 -122 -23 -12 -24 -5 -6 72 8
30 10 64 6 75 -14 35 -9 38 20 10 25 -24 35 -27 65 -22 40 8 47 21 15 31 -11
4 -18 9 -15 12 3 3 17 -2 32 -12 27 -17 27 -17 21 4 -4 18 -3 20 8 11 10 -8
14 -7 18 2 3 7 6 8 6 2 1 -7 12 -9 27 -6 27 5 27 5 -12 28 -22 13 -52 24 -68
24 -22 0 -27 3 -19 11 6 6 47 11 92 11 77 1 80 2 59 17 -29 20 -157 28 -188
11 -12 -7 -20 -8 -17 -3 4 6 29 21 57 34 27 13 50 27 50 31 0 11 -44 10 -73
-1 -23 -9 -24 -8 -22 34 3 43 40 125 59 125 5 0 7 3 3 6 -11 12 -67 -38 -94
-83 -15 -26 -32 -67 -39 -92 l-11 -46 -22 51 c-24 55 -75 112 -85 96 -3 -6 0
-17 8 -25 8 -8 12 -17 9 -21 -3 -3 0 -12 6 -20 7 -9 8 -17 2 -20 -12 -8 -61
11 -61 23 0 16 -193 172 -212 171 -2 0 -11 -5 -20 -11z m257 -426 c-3 -10 -14
-45 -22 -78 -9 -33 -18 -62 -19 -63 -5 -8 -64 33 -64 44 0 14 90 114 103 114
5 0 6 -8 2 -17z m-249 -105 c8 -26 -7 -41 -37 -36 -29 4 -38 37 -14 54 21 16
42 8 51 -18z m-56 -48 c0 -5 -4 -10 -10 -10 -5 0 -10 5 -10 10 0 6 5 10 10 10
6 0 10 -4 10 -10z"/>
<path d="M3520 4061 c-19 -10 -53 -39 -75 -62 -22 -24 -91 -98 -153 -163
l-113 -120 25 -13 c18 -9 24 -19 21 -35 -6 -31 12 -48 52 -48 21 0 36 -6 39
-15 4 -8 9 -13 13 -10 4 2 8 -2 8 -10 0 -14 -9 -19 -32 -16 -6 0 -12 -9 -12
-21 -1 -13 1 -18 5 -11 4 7 16 10 27 9 11 -2 31 7 45 19 14 13 36 26 49 30 12
4 39 18 58 31 20 13 45 24 55 24 20 0 21 11 6 94 -2 14 17 36 67 78 39 32 79
75 89 95 18 33 18 39 5 76 -26 74 -109 106 -179 68z"/>
<path d="M2809 4008 l-22 -33 31 29 c34 32 37 36 23 36 -5 0 -20 -15 -32 -32z"/>
<path d="M3697 3873 c-15 -14 -6 -53 14 -63 37 -20 67 28 37 58 -13 13 -41 16
-51 5z"/>
<path d="M1658 3793 c34 -2 90 -2 125 0 34 2 6 3 -63 3 -69 0 -97 -1 -62 -3z"/>
<path d="M2018 3783 c12 -2 32 -2 45 0 12 2 2 4 -23 4 -25 0 -35 -2 -22 -4z"/>
<path d="M1298 3643 c7 -3 16 -2 19 1 4 3 -2 6 -13 5 -11 0 -14 -3 -6 -6z"/>
<path d="M1320 3622 c-25 -2 -49 -8 -55 -14 -7 -7 7 -8 45 -3 81 11 88 22 10
17z"/>
<path d="M2401 3573 l-1 -23 -277 -1 c-153 -1 -332 -5 -398 -8 -119 -7 -120
-7 -57 -15 34 -5 65 -13 68 -17 3 -5 -2 -9 -10 -9 -23 0 -56 -49 -56 -84 0
-17 9 -85 20 -151 12 -66 23 -134 26 -152 3 -18 16 -46 29 -62 l25 -29 273 -1
c151 0 282 -3 293 -6 12 -4 10 -1 -6 9 -25 15 -25 15 -2 16 12 0 22 -4 22 -10
0 -5 1 -13 2 -17 1 -5 -11 -11 -28 -14 l-29 -7 28 -1 c20 -1 27 -6 27 -21 0
-25 16 -26 30 -1 14 27 13 31 -5 25 -11 -5 -13 -2 -9 10 5 13 21 16 78 16 87
0 120 15 124 55 5 41 -28 150 -40 133 -6 -9 -7 -6 -4 8 12 40 -69 246 -109
279 l-24 20 59 -3 c53 -3 58 -5 45 -19 -8 -8 -15 -15 -15 -17 0 -1 16 -49 36
-107 20 -57 49 -140 64 -185 37 -108 55 -141 82 -150 13 -4 77 -10 143 -13 92
-5 122 -4 128 6 9 15 37 18 37 4 0 -5 10 -7 23 -5 12 2 16 2 10 -2 -7 -3 -13
-12 -13 -19 0 -7 -6 -16 -12 -18 -10 -4 -10 -6 0 -6 7 -1 10 -5 7 -11 -3 -5
-2 -10 4 -10 5 0 13 5 16 10 3 6 16 10 28 10 20 1 20 2 5 11 -32 18 -19 27 30
17 80 -15 98 -3 92 57 -3 36 -150 319 -183 354 -24 26 -27 32 -12 27 29 -11
85 -19 85 -13 0 8 -177 64 -240 76 -73 14 -248 31 -319 31 -63 0 -76 6 -84 35
-4 18 -5 18 -6 -2z m538 -220 c16 -62 51 -252 51 -279 0 -19 -5 -24 -25 -24
-19 0 -26 7 -31 28 -4 15 -22 87 -40 161 -36 142 -36 151 13 151 17 0 24 -8
32 -37z m85 -98 c37 -75 69 -156 73 -180 l6 -45 -41 0 -41 0 -11 58 c-6 31
-24 112 -39 180 -15 67 -25 122 -21 122 4 0 37 -61 74 -135z m-170 108 c7 -23
56 -261 56 -271 0 -4 -49 -7 -110 -7 l-109 0 -5 50 c-3 28 -8 84 -11 126 -7
89 0 100 74 110 83 11 99 10 105 -8z m-220 -65 c3 -29 7 -90 10 -136 6 -110
-11 -97 -58 46 -46 138 -46 142 3 142 l40 0 5 -52z m-226 -84 c2 -66 0 -104
-6 -100 -6 3 -13 -1 -16 -10 -4 -12 -19 -14 -63 -12 l-58 3 -9 104 c-10 121
-11 121 84 121 l65 0 3 -106z m62 39 c13 -58 15 -92 11 -148 -1 -10 -11 -15
-31 -15 l-30 0 0 115 c0 105 2 115 18 115 15 0 21 -14 32 -67z m-581 -84 c18
-53 14 -75 -24 -103 -32 -25 -38 -26 -62 -14 -32 15 -58 59 -67 111 l-7 37 75
0 74 0 11 -31z m136 -11 c-9 -56 -11 -58 -43 -58 -19 0 -23 -3 -14 -9 10 -6 9
-10 -7 -14 -12 -3 -19 -1 -15 4 3 5 0 9 -5 9 -14 0 -14 65 -1 91 8 14 21 19
51 19 l41 0 -7 -42z m150 -58 c13 -6 5 -7 -25 -3 -25 3 -47 7 -49 9 -9 8 55 2
74 -6z m95 -46 c0 -2 -9 0 -20 6 -11 6 -20 13 -20 16 0 2 9 0 20 -6 11 -6 20
-13 20 -16z m140 5 c10 -5 -2 -8 -33 -9 -27 0 -46 4 -43 9 4 5 0 12 -6 15 -7
3 5 3 27 -1 22 -3 47 -9 55 -14z m46 12 c5 -5 18 -11 29 -14 11 -3 5 -5 -14
-4 -19 1 -36 8 -39 15 -4 14 10 16 24 3z m423 -18 c21 -17 19 -18 -73 -15 -53
2 -96 7 -96 12 0 24 140 27 169 3z m-866 0 c-18 -2 -48 -2 -65 0 -18 2 -4 4
32 4 36 0 50 -2 33 -4z"/>
<path d="M1295 3560 c-11 -4 -32 -5 -47 -4 -15 2 -30 -1 -33 -6 -6 -10 92 -6
103 4 10 10 -3 14 -23 6z"/>
<path d="M988 3553 c6 -2 18 -2 25 0 6 3 1 5 -13 5 -14 0 -19 -2 -12 -5z"/>
<path d="M928 3543 c6 -2 18 -2 25 0 6 3 1 5 -13 5 -14 0 -19 -2 -12 -5z"/>
<path d="M1405 3501 c-49 -10 -146 -28 -214 -41 -68 -13 -119 -26 -113 -28 6
-2 47 4 93 13 45 8 84 14 86 12 2 -2 -3 -19 -11 -38 -22 -53 -106 -354 -106
-379 0 -42 11 -14 46 121 46 176 51 196 76 252 18 39 28 49 57 56 65 17 251
43 266 37 30 -11 14 -25 -32 -29 l-48 -3 53 -2 c48 -2 52 -4 52 -27 0 -23 -3
-25 -42 -24 -30 2 -35 3 -15 6 15 2 27 10 27 16 0 7 4 6 10 -3 8 -13 10 -12
10 3 0 15 -7 18 -47 15 -41 -3 -48 -6 -46 -23 1 -11 -2 -56 -8 -100 -11 -87
-2 -135 26 -135 17 0 19 -44 7 -115 -7 -39 -8 -40 -45 -37 -20 2 -37 2 -37 0
0 -2 15 -15 33 -28 18 -14 26 -16 18 -7 -12 15 -11 17 8 17 11 0 21 -4 21 -9
0 -10 79 7 98 22 6 5 12 14 12 20 0 7 -4 7 -12 -1 -7 -7 -27 -12 -45 -12 -30
0 -33 3 -33 29 0 15 3 49 6 75 7 45 8 46 41 46 l35 0 -7 48 c-5 26 -9 91 -10
144 -1 62 -6 102 -14 112 -17 21 -78 19 -196 -3z m182 -133 c-3 -8 -6 -5 -6 6
-1 11 2 17 5 13 3 -3 4 -12 1 -19z m-10 -55 c-3 -10 -5 -4 -5 12 0 17 2 24 5
18 2 -7 2 -21 0 -30z m-10 -80 c-3 -10 -5 -4 -5 12 0 17 2 24 5 18 2 -7 2 -21
0 -30z"/>
<path d="M1438 3463 c12 -2 32 -2 45 0 12 2 2 4 -23 4 -25 0 -35 -2 -22 -4z"/>
<path d="M1321 3451 c-13 -3 -28 -13 -32 -21 -18 -31 -80 -293 -82 -343 l-2
-52 89 -3 c71 -2 93 1 115 15 14 9 33 16 41 14 11 -2 11 2 -4 18 -17 19 -20
19 -43 4 -14 -10 -22 -22 -18 -31 4 -10 0 -12 -11 -8 -8 3 -25 6 -37 6 -20 0
-22 6 -25 75 l-3 75 69 0 c68 0 70 1 75 28 12 62 19 152 13 177 -6 25 -7 25
-74 19 -61 -7 -66 -6 -54 9 8 9 26 18 40 20 26 4 26 4 -3 5 -16 0 -41 -3 -54
-7z m-29 -326 c3 -73 2 -75 -20 -75 -23 0 -24 2 -17 53 4 28 9 59 11 67 1 8 3
18 3 23 1 4 5 7 10 7 5 0 11 -34 13 -75z"/>
<path d="M3731 3410 c-8 -24 -7 -30 5 -30 7 0 14 -4 14 -8 0 -4 14 -13 30 -19
17 -6 30 -15 30 -20 0 -4 -60 -9 -132 -9 -112 -1 -170 -5 -198 -13 -3 -1 1 -5
9 -10 11 -7 6 -19 -25 -57 -21 -27 -44 -55 -51 -62 -13 -13 -7 -42 9 -42 5 0
7 -4 3 -9 -8 -15 12 -23 32 -13 10 5 88 44 173 87 85 43 163 85 173 93 34 30
10 104 -43 132 -15 8 -20 5 -29 -20z m-241 -190 c0 -5 -4 -10 -10 -10 -5 0
-10 5 -10 10 0 6 5 10 10 10 6 0 10 -4 10 -10z"/>
<path d="M1028 3423 c6 -2 18 -2 25 0 6 3 1 5 -13 5 -14 0 -19 -2 -12 -5z"/>
<path d="M900 3405 c-36 -7 -54 -13 -40 -13 14 -1 54 5 90 12 36 8 54 14 40
14 -14 0 -54 -6 -90 -13z"/>
<path d="M1037 3406 c-26 -7 -49 -15 -51 -17 -17 -19 -88 -296 -84 -328 3 -26
4 -26 89 -29 68 -2 89 1 99 13 11 13 3 15 -75 15 l-87 0 7 33 c14 71 8 67 106
67 l89 0 0 26 0 27 -81 -7 c-73 -6 -81 -5 -75 10 3 8 9 34 13 57 10 67 31 107
54 107 11 0 17 5 14 10 -4 7 15 9 57 7 35 -3 47 -2 28 1 l-35 6 40 6 40 7 -50
1 c-27 0 -71 -5 -98 -12z m1 -223 c-10 -2 -26 -2 -35 0 -10 3 -2 5 17 5 19 0
27 -2 18 -5z"/>
<path d="M1492 3400 c0 -14 2 -19 5 -12 2 6 2 18 0 25 -3 6 -5 1 -5 -13z"/>
<path d="M1623 3375 c0 -22 2 -30 4 -17 2 12 2 30 0 40 -3 9 -5 -1 -4 -23z"/>
<path d="M783 3383 c9 -2 23 -2 30 0 6 3 -1 5 -18 5 -16 0 -22 -2 -12 -5z"/>
<path d="M660 3371 c-20 -4 -34 -12 -32 -19 1 -7 -3 -12 -9 -12 -5 0 -8 -4 -4
-9 3 -5 0 -13 -6 -17 -8 -4 -7 -9 2 -15 11 -7 11 -9 -2 -9 -9 0 -19 -7 -23
-15 -4 -12 3 -15 37 -15 56 0 87 9 87 26 0 7 -14 15 -32 17 -32 4 -31 4 6 5
29 2 37 5 32 17 -3 8 -1 15 5 15 6 0 9 6 6 14 -4 10 2 16 16 19 12 2 7 4 -13
4 -19 0 -51 -3 -70 -6z"/>
<path d="M800 3371 c-30 -5 -37 -12 -52 -55 -30 -80 -71 -253 -65 -270 5 -13
22 -16 81 -16 46 0 78 4 82 12 5 8 -10 9 -60 4 l-68 -7 4 48 3 48 75 9 c70 8
89 17 90 40 0 5 -31 6 -70 2 -73 -6 -80 -3 -59 36 6 11 13 32 15 46 13 82 13
81 62 88 73 11 96 23 42 22 -25 0 -61 -3 -80 -7z"/>
<path d="M1482 3325 c0 -16 2 -22 5 -12 2 9 2 23 0 30 -3 6 -5 -1 -5 -18z"/>
<path d="M1632 3300 c0 -19 2 -27 5 -17 2 9 2 25 0 35 -3 9 -5 1 -5 -18z"/>
<path d="M1465 3235 c-5 -33 -3 -60 3 -68 5 -6 12 -21 15 -32 4 -19 5 -18 6 2
0 12 -4 25 -10 29 -8 4 -9 26 -5 65 4 33 5 59 2 59 -2 0 -8 -25 -11 -55z"/>
<path d="M3655 3196 c-207 -107 -207 -107 -202 -112 3 -4 333 160 346 172 2 2
2 6 0 8 -2 3 -67 -28 -144 -68z"/>
<path d="M636 3250 c-38 -3 -61 -10 -64 -19 -4 -11 8 -13 57 -9 33 2 63 7 67
10 16 16 -6 23 -60 18z"/>
<path d="M1642 3225 c0 -16 2 -22 5 -12 2 9 2 23 0 30 -3 6 -5 -1 -5 -18z"/>
<path d="M622 3213 c-46 -4 -54 -8 -62 -29 -16 -42 -13 -45 47 -42 63 3 84 24
31 31 l-33 4 36 1 c23 1 39 8 43 18 8 20 8 24 -1 22 -5 -1 -32 -3 -61 -5z"/>
<path d="M335 3179 c-4 -6 -4 -13 -1 -16 3 -4 6 -1 6 6 0 7 5 9 10 6 6 -3 10
-1 10 4 0 14 -17 14 -25 0z"/>
<path d="M1654 3103 c1 -63 4 -86 10 -73 5 11 5 49 -1 92 l-9 73 0 -92z"/>
<path d="M303 3128 c-1 -11 1 -16 5 -12 4 5 11 12 15 15 5 3 2 9 -5 12 -9 3
-14 -3 -15 -15z"/>
<path d="M547 3123 c-18 -17 -2 -24 50 -21 77 4 86 28 11 28 -30 0 -58 -3 -61
-7z"/>
<path d="M1360 3099 c0 -17 3 -19 13 -10 8 6 17 8 20 4 4 -3 7 -3 7 0 0 3 -9
11 -20 17 -17 9 -20 8 -20 -11z"/>
<path d="M3213 3108 c-6 -9 -6 -21 2 -36 l13 -23 6 27 c6 21 10 25 16 14 5 -8
6 -19 4 -25 -3 -5 2 -1 10 9 9 11 15 27 15 35 -1 13 -2 12 -6 -1 -4 -16 -6
-16 -19 -3 -19 18 -29 19 -41 3z"/>
<path d="M317 3079 c12 -12 24 -21 27 -18 2 2 -8 13 -22 23 l-27 19 22 -24z"/>
<path d="M539 3088 c-1 -2 -2 -18 -4 -35 l-2 -33 51 1 c44 1 47 2 21 9 l-30 8
33 1 c39 1 43 18 5 24 -26 4 -26 4 5 6 55 2 35 21 -23 21 -30 0 -56 -1 -56 -2z"/>
<path d="M3574 3052 c-86 -36 -91 -39 -80 -59 11 -20 11 -20 96 8 47 15 93 28
103 29 17 0 22 16 11 44 -9 23 -28 20 -130 -22z"/>
<path d="M1537 3004 c-4 -4 -7 -20 -7 -36 0 -33 25 -48 45 -27 12 12 10 18 -9
42 -12 15 -25 24 -29 21z"/>
<path d="M2025 3000 l-190 -6 182 -2 c157 -2 182 -4 177 -17 -9 -23 10 -18 36
10 21 23 22 25 4 23 -10 -1 -104 -5 -209 -8z"/>
<path d="M2428 2993 c17 -2 47 -2 65 0 17 2 3 4 -33 4 -36 0 -50 -2 -32 -4z"/>
<path d="M2701 2993 c10 -2 20 -14 24 -26 l8 -22 4 22 c4 20 11 22 81 26 63 2
58 3 -28 4 -58 0 -98 -1 -89 -4z"/>
<path d="M1472 2957 c-9 -11 -10 -17 -2 -22 15 -9 23 -1 18 21 -3 15 -4 16
-16 1z"/>
<path d="M3100 2935 c0 -8 7 -15 15 -15 8 0 15 7 15 15 0 8 -7 15 -15 15 -8 0
-15 -7 -15 -15z"/>
<path d="M1695 2892 c3 -41 2 -43 -18 -38 -59 16 -278 46 -409 56 -81 5 -285
10 -453 10 -302 0 -306 0 -300 -20 4 -12 2 -20 -6 -20 -9 0 -9 -3 0 -14 9 -11
9 -15 -1 -18 -11 -4 -11 -8 0 -20 10 -13 10 -17 0 -21 -10 -4 -10 -8 2 -16 10
-7 11 -11 3 -11 -7 0 -13 -6 -13 -14 0 -16 98 -28 115 -14 11 10 146 10 160 0
10 -7 11 -25 7 -144 -2 -50 -5 -57 -24 -61 l-23 -4 23 -2 c12 0 22 -5 22 -11
0 -5 -6 -8 -12 -5 -7 2 -45 9 -85 15 -40 7 -72 15 -72 18 4 24 -6 31 -43 35
l-43 4 43 1 c31 2 42 6 42 18 0 13 -7 15 -35 11 -19 -3 -37 -1 -40 4 -4 5 13
9 37 9 31 0 39 3 28 10 -8 5 -33 10 -56 10 l-41 0 -2 -52 c-2 -29 -3 -73 -4
-98 l-2 -45 44 -9 44 -9 -6 -85 c-4 -53 -11 -88 -19 -94 -21 -13 -48 -9 -48 7
0 8 7 15 15 15 18 0 18 5 2 89 -14 69 -37 95 -37 42 0 -17 5 -31 10 -31 6 0
10 -20 10 -45 0 -42 -11 -58 -25 -35 -11 19 -25 10 -25 -16 0 -33 17 -64 35
-64 7 0 15 -4 17 -8 2 -5 39 -3 82 5 43 7 80 12 81 11 1 -2 5 -46 9 -99 l6
-96 -30 -6 c-35 -7 -40 -27 -7 -28 21 0 21 -1 2 -8 -17 -7 -16 -9 13 -15 40
-9 43 -36 5 -37 -16 -1 -32 0 -38 1 -5 1 -37 9 -69 16 -33 8 -66 12 -73 9 -8
-3 -11 0 -7 6 4 7 -1 10 -12 7 -10 -2 -20 -11 -22 -19 -4 -21 41 -33 68 -19
10 5 22 10 27 10 4 -1 -3 -7 -17 -14 -24 -14 -24 -14 20 -26 175 -45 369 -118
528 -198 94 -47 109 -58 92 -64 -16 -6 -30 -1 -53 16 -101 75 -604 253 -735
260 -22 1 -47 8 -56 15 -18 15 -36 7 -36 -18 0 -10 -7 -32 -16 -50 -22 -45
-11 -87 28 -100 17 -6 34 -8 39 -5 5 3 9 1 9 -4 0 -5 15 -12 33 -16 17 -3 57
-13 87 -22 80 -24 307 -93 365 -111 l50 -17 -85 -27 -85 -28 50 -21 c112 -49
257 -120 286 -141 l30 -21 83 26 c46 14 89 26 96 26 6 0 36 -12 66 -26 52 -25
70 -44 39 -44 -13 0 -205 -68 -214 -76 -2 -2 -2 -6 1 -10 3 -3 76 23 162 57
121 47 162 59 184 54 l27 -7 -30 -10 c-127 -41 -573 -246 -596 -274 -6 -8 -15
-11 -20 -8 -5 3 -9 0 -9 -5 0 -6 2 -11 5 -11 3 0 66 31 140 69 122 62 192 90
180 71 -3 -4 4 -15 14 -24 15 -13 20 -14 24 -4 4 8 6 7 6 -4 1 -18 16 -24 24
-10 2 4 2 2 1 -5 -4 -16 63 -66 78 -57 6 4 8 3 5 -3 -4 -6 1 -17 10 -24 14
-12 16 -12 8 0 -5 10 -4 12 3 7 7 -4 12 -13 12 -20 0 -18 35 -48 44 -39 4 5 6
4 5 -2 -5 -16 21 -56 31 -50 6 4 7 -1 3 -11 -4 -11 -3 -15 4 -11 7 5 18 -12
28 -43 9 -27 21 -50 26 -50 5 0 8 -3 8 -7 -3 -20 2 -34 11 -28 8 5 15 -30 11
-57 -1 -9 34 -2 56 11 17 10 17 10 1 11 -12 0 -18 8 -18 24 0 28 15 42 26 25
4 -8 3 -9 -4 -5 -8 5 -12 0 -12 -13 0 -26 11 -27 32 -2 11 13 13 21 5 24 -6 2
-3 6 7 10 10 4 15 3 11 -3 -3 -6 -1 -10 5 -10 6 0 9 -4 5 -9 -3 -5 -1 -13 5
-16 13 -8 40 12 40 29 0 6 -5 3 -11 -6 -5 -10 -15 -18 -20 -18 -6 0 -7 4 -4
10 3 5 -6 22 -20 36 -25 25 -27 25 -40 8 -7 -11 -16 -16 -20 -12 -4 4 2 20 14
37 13 18 17 32 11 36 -16 10 -11 68 8 91 15 19 340 174 364 174 22 0 183 -82
231 -117 37 -28 52 -34 55 -23 8 23 52 58 82 65 28 6 70 -8 70 -23 0 -4 -34
-24 -75 -45 l-75 -39 -40 32 c-42 34 -164 100 -183 100 -7 0 -39 -13 -72 -29
-39 -19 -55 -31 -45 -34 107 -42 321 -118 657 -236 l131 -46 22 20 c19 17 21
28 18 72 -3 29 0 53 5 53 5 0 40 -9 77 -21 l69 -21 44 20 c52 23 65 43 76 113
6 37 5 52 -5 60 -8 6 -14 17 -14 25 0 7 -9 16 -20 19 -11 4 -17 11 -14 17 4 5
9 6 13 2 3 -5 20 -10 36 -10 17 -1 75 -12 129 -24 84 -19 103 -21 120 -10 12
8 32 19 44 26 22 11 23 12 5 18 -35 11 -76 62 -68 85 11 35 61 54 124 48 82
-9 121 -25 135 -57 l11 -27 103 58 c120 67 142 84 142 114 0 37 -42 89 -83
102 -35 12 -40 11 -95 -24 -31 -20 -60 -41 -63 -46 -7 -9 -30 -7 -94 9 -20 5
-26 4 -21 -5 11 -17 -21 -25 -65 -15 -46 10 -52 29 -10 29 16 0 27 3 25 7 -2
4 1 10 7 14 6 3 15 1 19 -6 5 -8 16 -9 30 -5 l23 7 -24 14 c-14 8 -18 13 -9
13 8 1 22 -4 30 -9 10 -6 28 -2 59 15 24 14 51 25 60 26 9 1 0 5 -19 9 -21 5
-36 5 -38 -1 -5 -12 -42 -12 -42 1 0 6 6 10 13 11 31 2 -123 38 -163 39 -25 0
-75 8 -112 17 l-67 17 32 32 c44 44 57 61 57 78 0 8 4 17 9 20 9 6 18 49 28
129 l5 48 -41 -7 c-40 -6 -41 -6 -47 24 -6 27 -9 30 -29 22 -13 -5 -52 -12
-87 -16 -34 -4 -66 -11 -69 -16 -4 -6 -86 -12 -183 -15 l-177 -5 3 68 c3 68 3
69 31 67 15 -1 27 2 27 8 0 5 14 9 30 9 17 0 30 -5 30 -12 0 -10 2 -10 8 0 6
9 31 12 80 10 40 -2 72 0 72 4 0 4 15 9 33 12 17 2 -44 2 -137 0 -93 -3 -173
-7 -177 -10 -5 -3 -9 -34 -9 -68 l0 -64 -121 -7 c-112 -7 -120 -9 -116 -26 8
-29 -20 -51 -62 -47 l-36 3 -6 70 c-3 39 -6 53 -7 33 l-2 -38 -114 0 c-125 0
-322 15 -453 34 -74 11 -83 10 -83 -3 -1 -20 -50 34 -50 54 0 7 16 27 35 44
42 36 35 36 293 20 202 -13 218 -10 188 36 -10 15 -15 29 -12 32 3 3 15 -11
26 -30 16 -27 31 -38 55 -43 64 -12 66 -10 111 118 3 10 16 20 27 24 21 7 56
42 57 57 0 4 -18 35 -40 68 -23 32 -39 59 -38 60 2 0 37 10 78 22 l74 22 36
-40 c63 -70 135 -200 154 -277 9 -37 51 -40 60 -4 7 27 -12 89 -24 81 -4 -3
-6 5 -2 17 3 14 1 19 -6 14 -12 -7 -16 -1 -94 119 -116 179 -319 330 -575 428
-50 20 -104 44 -120 53 -16 10 -23 12 -15 4 23 -27 14 -40 -29 -40 -39 0 -41
2 -37 25 5 22 0 26 -33 36 -34 11 -38 16 -48 58 l-10 46 4 -43z m-1085 -2 c0
-5 -13 -10 -29 -10 -17 0 -33 5 -36 10 -4 6 8 10 29 10 20 0 36 -4 36 -10z
m478 -7 c41 -7 44 -33 3 -33 -17 0 -33 -5 -36 -11 -9 -13 -7 -15 32 -22 31 -6
33 -5 39 30 l7 35 111 -7 c61 -4 112 -8 113 -9 3 -2 -98 -172 -130 -219 -10
-15 -8 -22 16 -43 32 -27 78 -31 117 -10 14 8 57 52 96 98 78 92 124 128 163
128 23 0 22 -2 -14 -19 -22 -10 -52 -34 -66 -53 -54 -70 -109 -206 -109 -270
0 -18 -5 -28 -15 -28 -21 0 -53 34 -61 65 -3 14 -8 25 -10 25 -2 0 -19 -16
-37 -36 -32 -35 -34 -36 -89 -29 -47 6 -57 11 -60 28 -2 11 -8 22 -15 24 -9 3
-9 -3 -1 -25 11 -28 15 -29 127 -47 193 -29 210 -37 216 -100 3 -20 58 -215
70 -247 15 -37 -6 -16 -29 31 -26 51 -52 66 -90 51 -80 -31 -117 -183 -81
-340 23 -97 28 -139 15 -119 -18 30 -40 143 -40 212 l0 67 -63 0 c-34 0 -120
-7 -191 -15 -71 -8 -130 -14 -132 -13 -6 7 20 108 27 108 5 0 9 7 9 15 0 8 6
16 13 16 22 2 52 -3 62 -11 6 -4 40 -15 78 -25 50 -13 67 -22 67 -35 0 -12 11
-19 38 -24 85 -14 86 -13 105 64 9 39 24 82 33 96 20 30 70 58 90 50 19 -7 18
3 -11 67 -26 61 -36 66 -134 70 -40 2 -45 -1 -52 -23 -4 -14 -7 -46 -8 -72 -1
-27 -4 -48 -8 -48 -5 0 -30 7 -58 16 -27 9 -56 18 -62 20 -9 2 -13 24 -13 62
l0 59 66 -15 66 -15 22 28 c21 26 24 27 89 20 43 -5 77 -15 95 -28 l27 -20
-21 22 c-17 19 -51 29 -165 51 -79 16 -152 31 -161 35 -15 6 -17 24 -15 158
l2 152 37 0 c56 0 56 13 -1 16 -27 2 -49 2 -49 -1 0 -3 0 -69 -1 -147 l-1
-143 -32 0 c-41 0 -53 8 -61 40 -4 14 -11 32 -17 40 -8 13 -11 13 -24 0 -19
-20 -32 -70 -17 -70 6 0 11 -6 11 -14 0 -16 13 -21 73 -32 20 -3 37 -11 37
-16 0 -6 -10 -8 -22 -5 -13 3 -49 11 -80 18 -36 7 -58 17 -58 26 0 14 -25 18
-33 6 -2 -5 -2 -2 -1 5 2 6 -4 12 -14 12 -15 0 -15 2 -2 11 11 8 3 9 -30 5
-32 -5 -41 -3 -30 4 10 6 11 10 3 10 -10 0 -13 29 -13 109 0 61 -4 112 -8 115
-5 3 -46 6 -93 8 l-84 3 1 40 c1 22 2 48 3 58 1 17 16 18 219 16 119 -1 232
-4 250 -6z m-500 -30 c-10 -2 -26 -2 -35 0 -10 3 -2 5 17 5 19 0 27 -2 18 -5z
m0 -40 c-10 -2 -26 -2 -35 0 -10 3 -2 5 17 5 19 0 27 -2 18 -5z m12 -33 c0 -5
-13 -10 -30 -10 -16 0 -30 5 -30 10 0 6 14 10 30 10 17 0 30 -4 30 -10z m1410
-75 c17 -9 30 -18 30 -21 0 -3 -4 -2 -10 1 -6 3 -7 -1 -4 -9 3 -9 10 -13 15
-10 5 3 6 -2 3 -11 -4 -10 -12 -14 -23 -9 -55 23 -70 27 -85 21 -9 -4 -16 -17
-16 -29 0 -18 -2 -20 -9 -8 -6 8 -7 19 -3 25 3 5 -2 4 -11 -4 -30 -24 -20 8
12 40 33 33 58 36 101 14z m228 -159 c34 -23 65 -51 68 -62 3 -13 -3 -38 -14
-60 l-20 -39 -7 27 c-4 15 -13 32 -21 39 -8 6 -14 16 -14 21 0 6 7 5 15 -2 26
-22 16 -4 -12 21 -18 16 -22 17 -13 5 14 -18 13 -19 -5 -11 -11 5 -44 11 -73
13 -51 4 -54 3 -97 -41 -39 -39 -47 -43 -62 -31 -17 12 -15 15 16 48 19 20 44
39 55 42 12 4 30 13 41 21 19 13 19 14 -5 11 -68 -9 -141 -88 -146 -159 -1
-24 -13 -53 -28 -74 -14 -18 -36 -54 -50 -79 l-24 -45 -17 41 c-68 172 16 301
203 309 17 1 21 3 9 6 -16 4 -15 8 8 35 14 16 25 36 25 44 0 18 66 -14 168
-80z m-242 37 c32 6 31 -1 -2 -14 -32 -12 -61 -4 -74 21 -9 17 -8 18 21 3 17
-8 41 -13 55 -10z m187 -111 c-2 -6 3 -9 11 -6 8 3 21 -5 30 -18 20 -29 20
-42 0 -34 -13 5 -16 0 -12 -29 3 -28 1 -34 -10 -30 -12 4 -13 3 -2 -10 7 -8
17 -12 24 -8 6 4 -1 -9 -16 -29 -15 -19 -25 -37 -23 -39 2 -2 -21 -4 -51 -4
-45 1 -58 5 -84 30 -31 30 -39 48 -17 43 6 -1 25 6 40 17 l29 18 -29 16 c-15
8 -34 14 -41 12 -19 -3 13 44 46 67 28 21 109 24 105 4z m-1480 -17 c43 -8 80
-15 82 -15 1 0 6 -10 10 -22 7 -23 8 -23 12 -2 4 20 5 21 96 7 204 -29 191
-25 198 -58 10 -47 10 -97 0 -90 -5 3 -11 -5 -13 -17 -3 -22 -8 -23 -73 -22
-38 0 -100 4 -137 9 l-68 8 0 34 c0 27 -6 37 -29 51 -20 11 -32 27 -36 48 -7
41 -21 52 -75 60 -48 7 -88 23 -60 24 8 0 50 -7 93 -15z m987 -9 c0 -2 -8 -10
-17 -17 -16 -13 -17 -12 -4 4 13 16 21 21 21 13z m-40 -50 c0 -2 -8 -10 -17
-17 -16 -13 -17 -12 -4 4 13 16 21 21 21 13z m-1040 -116 c0 -13 -6 -20 -17
-19 -11 0 -13 3 -5 6 6 2 12 11 12 19 0 8 2 14 5 14 3 0 5 -9 5 -20z m171 -21
c4 -13 7 -37 7 -54 l-1 -30 -6 33 c-10 55 -22 31 -25 -51 -3 -53 1 -87 10
-105 9 -18 10 -31 3 -44 -25 -46 -60 6 -58 86 1 35 2 38 9 16 7 -22 8 -22 9
-4 1 11 -2 24 -6 28 -4 4 -8 28 -10 54 -1 34 1 41 7 27 8 -19 9 -19 9 2 1 35
20 75 33 71 7 -3 15 -15 19 -29z m1270 14 c13 -16 12 -17 -3 -4 -10 7 -18 15
-18 17 0 8 8 3 21 -13z m82 -30 c-7 -2 -19 -2 -25 0 -7 3 -2 5 12 5 14 0 19
-2 13 -5z m27 -71 c0 -10 -6 -27 -14 -38 -13 -16 -18 -17 -35 -7 -13 8 -22 9
-26 3 -3 -6 -15 -10 -26 -10 -14 0 -19 7 -19 25 0 33 25 42 50 20 11 -10 20
-14 20 -9 0 8 9 14 48 33 1 0 2 -7 2 -17z m-250 -3 c0 -7 -17 -10 -45 -7 -25
2 -47 -1 -49 -7 -3 -5 -5 -2 -5 8 -1 14 8 17 49 17 30 0 50 -4 50 -11z m-50
-58 c0 -4 -11 -8 -25 -9 -15 -1 -25 3 -25 12 0 9 8 12 25 8 14 -2 25 -7 25
-11z m-360 -28 c0 3 13 -7 29 -23 28 -28 28 -31 24 -117 -5 -101 -25 -156 -60
-161 -28 -4 -29 -18 -3 -32 28 -15 65 -3 50 15 -9 11 -7 14 9 12 26 -2 26 -2
0 -43 -34 -56 -70 -67 -110 -35 -19 15 -24 29 -25 70 -1 46 1 50 15 38 9 -7
31 -14 49 -16 29 -2 34 1 47 33 21 49 19 132 -5 184 -21 46 -43 61 -64 43 -12
-10 -10 -16 11 -37 23 -23 25 -31 21 -93 -2 -44 -10 -78 -22 -96 l-19 -28 -18
34 c-10 19 -19 43 -20 54 -1 17 -2 16 -9 -5 -4 -14 -5 8 -2 50 5 78 29 143 57
154 10 3 13 11 9 18 -4 7 2 4 14 -6 12 -11 22 -16 22 -13z m-1125 -173 c3 -6
-4 -9 -19 -8 -13 1 -22 6 -20 10 7 11 32 10 39 -2z m188 -36 c160 -45 306
-101 307 -118 0 -4 -8 -5 -17 -1 -57 25 -206 73 -322 105 -74 20 -137 42 -139
48 -5 16 -12 18 171 -34z m2380 9 c-13 -2 -33 -2 -45 0 -13 2 -3 4 22 4 25 0
35 -2 23 -4z m-282 -21 c-7 -2 -18 1 -23 6 -8 8 -4 9 13 5 13 -4 18 -8 10 -11z
m152 11 c-24 -2 -62 -2 -85 0 -24 2 -5 4 42 4 47 0 66 -2 43 -4z m-2536 -35
c-3 -8 -6 -5 -6 6 -1 11 2 17 5 13 3 -3 4 -12 1 -19z m36 7 c-3 -9 -8 -14 -10
-11 -3 3 -2 9 2 15 9 16 15 13 8 -4z m2415 -26 c14 0 13 -2 -3 -8 -17 -7 -17
-9 -3 -17 16 -9 82 -123 75 -130 -2 -2 -138 25 -303 61 -476 102 -450 92 -219
91 110 -1 206 -5 213 -9 27 -18 211 14 213 36 1 7 3 4 6 -5 2 -10 12 -18 21
-19z m-1148 -16 c-11 -17 -11 -17 -6 0 3 10 6 24 7 30 0 9 2 9 5 0 3 -7 0 -20
-6 -30z m-875 -37 c19 -8 35 -18 35 -22 0 -3 -8 -3 -17 1 -10 4 -34 14 -53 21
-19 7 -27 13 -17 14 10 0 33 -7 52 -14z m378 -193 c-7 -2 -21 -2 -30 0 -10 3
-4 5 12 5 17 0 24 -2 18 -5z m37 -13 c0 -5 8 -7 18 -3 9 3 14 3 10 -1 -3 -4
-12 -9 -20 -10 -7 -2 -24 -8 -38 -14 -14 -6 -45 -16 -69 -22 l-43 -11 56 -35
c102 -64 52 -77 -58 -15 -61 35 -66 39 -45 45 133 36 181 55 173 68 -3 4 0 8
5 8 6 0 11 -4 11 -10z m-160 -10 c0 -5 -8 -10 -17 -10 -15 0 -16 2 -3 10 19
12 20 12 20 0z m2425 -20 c-3 -5 -13 -10 -21 -10 -8 0 -14 5 -14 10 0 6 9 10
21 10 11 0 17 -4 14 -10z m-2488 -6 c-3 -3 -12 -4 -19 -1 -8 3 -5 6 6 6 11 1
17 -2 13 -5z m342 -4 c-6 -5 -18 -6 -26 -3 -19 8 -16 11 13 11 17 0 22 -3 13
-8z m46 0 c3 -6 -1 -7 -9 -4 -18 7 -21 14 -7 14 6 0 13 -4 16 -10z m2470 -120
c3 -5 -3 -10 -15 -10 -12 0 -18 5 -15 10 3 6 10 10 15 10 5 0 12 -4 15 -10z
m-145 -10 c11 -8 7 -9 -15 -4 -37 8 -45 14 -19 14 10 0 26 -5 34 -10z m126
-16 c18 -15 18 -15 -11 -9 -37 8 -57 25 -29 25 11 0 29 -7 40 -16z m-1346
-195 c62 -23 110 -50 110 -60 0 -4 -13 -12 -30 -18 -18 -6 -30 -6 -30 0 0 5 5
9 12 9 25 0 -9 18 -83 45 -64 22 -81 25 -99 15 -14 -8 -20 -8 -16 -1 6 8 46
25 76 30 3 1 30 -8 60 -20z m575 -17 c-3 -3 -11 0 -18 7 -9 10 -8 11 6 5 10
-3 15 -9 12 -12z m-1491 -170 c3 -5 -1 -9 -9 -9 -8 0 -12 4 -9 9 3 4 7 8 9 8
2 0 6 -4 9 -8z m93 -204 c-3 -7 -5 -2 -5 12 0 14 2 19 5 13 2 -7 2 -19 0 -25z"/>
<path d="M813 2805 c0 -44 2 -61 4 -37 2 23 2 59 0 80 -2 20 -4 1 -4 -43z"/>
<path d="M1135 2821 c-3 -5 2 -12 11 -15 26 -10 54 -7 54 7 0 14 -57 21 -65 8z"/>
<path d="M2129 2414 c-22 -12 -22 -13 -4 -14 l20 -1 -20 -9 -20 -9 20 -1 c11
-1 30 -3 43 -4 17 -2 22 2 22 20 0 27 -29 36 -61 18z"/>
<path d="M2715 2895 c-37 -17 -69 -20 -45 -5 30 19 -6 9 -45 -13 -21 -12 -53
-41 -69 -65 -41 -59 -48 -155 -16 -229 29 -68 109 -146 149 -146 17 0 28 -4
25 -8 -2 -4 11 -5 29 -2 l34 5 5 -83 c4 -63 2 -91 -9 -113 -13 -24 -13 -36 -3
-66 6 -20 13 -48 13 -63 1 -15 6 -27 11 -27 5 0 7 73 3 174 -4 128 -2 176 6
180 9 3 8 5 0 5 -9 1 -14 21 -15 59 -1 44 -2 48 -5 19 -3 -30 -8 -37 -19 -33
-9 3 -22 6 -29 6 -11 0 -11 5 0 28 8 15 16 47 20 72 l5 45 -19 -50 c-11 -27
-20 -43 -20 -35 -2 27 36 151 49 163 10 9 11 9 6 -1 -10 -17 2 -49 18 -49 11
0 9 13 -10 55 -13 30 -24 62 -24 71 0 14 -2 14 -10 1 -7 -11 -10 -5 -10 23 0
26 -4 37 -15 37 -12 0 -15 -13 -15 -59 0 -33 -4 -62 -9 -66 -6 -3 -23 14 -40
38 l-30 44 23 22 c13 12 40 24 60 28 30 5 36 10 36 29 0 13 -1 24 -2 23 -2 0
-16 -7 -33 -14z m22 -147 c-3 -8 -6 -5 -6 6 -1 11 2 17 5 13 3 -3 4 -12 1 -19z
m-68 -184 c20 -51 20 -52 0 -47 -36 10 -76 71 -83 127 -4 29 -4 61 0 71 6 16
13 9 35 -40 15 -33 37 -83 48 -111z m14 112 c18 -22 24 -40 20 -56 -6 -21 -7
-20 -20 11 -39 90 -39 97 0 45z m-63 -141 c13 -14 21 -25 18 -25 -2 0 -15 11
-28 25 -13 14 -21 25 -18 25 2 0 15 -11 28 -25z m105 -63 c-3 -3 -11 0 -18 7
-9 10 -8 11 6 5 10 -3 15 -9 12 -12z"/>
<path d="M3600 2880 c-11 -11 -20 -24 -20 -28 0 -4 -15 -6 -33 -4 -33 4 -69
-19 -75 -48 -3 -11 1 -11 16 3 22 20 37 23 25 5 -11 -19 -13 -39 -2 -32 5 3 7
10 4 15 -4 5 -2 9 3 9 16 0 33 -48 19 -54 -12 -4 17 -10 41 -7 6 1 12 -2 12
-6 0 -5 26 -10 57 -11 87 -4 77 -12 -15 -12 -76 0 -103 -10 -66 -24 24 -9 31
-7 14 4 -12 7 -8 10 15 10 21 0 26 -3 16 -9 -21 -14 -2 -18 102 -20 98 -3 119
5 78 31 -10 6 -17 17 -14 24 3 7 -7 25 -22 40 -19 19 -32 24 -50 20 -19 -5
-22 -3 -18 14 7 26 -15 78 -38 90 -24 13 -26 13 -49 -10z"/>
<path d="M2850 2866 c0 -2 8 -10 18 -17 15 -13 16 -12 3 4 -13 16 -21 21 -21
13z"/>
<path d="M2880 2826 c0 -2 8 -10 18 -17 15 -13 16 -12 3 4 -13 16 -21 21 -21
13z"/>
<path d="M2886 2787 c3 -10 9 -15 12 -12 3 3 0 11 -7 18 -10 9 -11 8 -5 -6z"/>
<path d="M2900 2751 c0 -6 4 -13 10 -16 6 -3 7 1 4 9 -7 18 -14 21 -14 7z"/>
<path d="M624 2736 c-3 -8 -4 -31 -1 -52 3 -37 4 -37 5 8 l2 47 58 4 57 3 -58
2 c-41 1 -59 -2 -63 -12z"/>
<path d="M500 2727 c0 -11 14 -16 55 -19 39 -2 55 1 55 10 0 6 -8 12 -17 12
-10 0 -35 3 -55 6 -30 5 -38 3 -38 -9z"/>
<path d="M2941 2694 c0 -11 3 -14 6 -6 3 7 2 16 -1 19 -3 4 -6 -2 -5 -13z"/>
<path d="M500 2686 c0 -13 11 -16 55 -16 30 0 55 5 55 10 0 6 -11 10 -24 10
-13 0 -38 3 -55 6 -24 5 -31 3 -31 -10z"/>
<path d="M2923 2645 c0 -27 2 -38 4 -22 2 15 2 37 0 50 -2 12 -4 0 -4 -28z"/>
<path d="M3207 2655 c-23 -23 -22 -32 13 -67 27 -26 36 -30 70 -25 36 5 39 3
43 -22 3 -20 4 -18 6 11 1 31 -2 37 -21 40 -17 2 -25 13 -32 41 -10 39 -23 48
-32 22 -6 -14 -8 -14 -18 1 -11 15 -14 15 -29 -1z"/>
<path d="M3095 2651 c-3 -5 -1 -12 5 -16 5 -3 10 1 10 9 0 18 -6 21 -15 7z"/>
<path d="M3630 2639 c0 -5 5 -7 10 -4 6 3 10 8 10 11 0 2 -4 4 -10 4 -5 0 -10
-5 -10 -11z"/>
<path d="M3671 2646 c7 -7 129 -10 136 -3 3 4 -27 7 -67 7 -40 0 -71 -2 -69
-4z"/>
<path d="M2800 2620 c0 -5 5 -10 11 -10 5 0 7 5 4 10 -3 6 -8 10 -11 10 -2 0
-4 -4 -4 -10z"/>
<path d="M2941 2584 c0 -11 3 -14 6 -6 3 7 2 16 -1 19 -3 4 -6 -2 -5 -13z"/>
<path d="M2810 2583 c1 -5 7 -19 15 -33 18 -31 19 -43 3 -34 -7 4 -9 3 -5 -1
18 -20 32 -11 32 20 0 19 -2 33 -5 33 -20 -1 -30 4 -25 12 3 6 1 10 -4 10 -6
0 -11 -3 -11 -7z"/>
<path d="M2897 2547 l-17 -32 20 24 c17 20 26 41 18 41 -2 0 -11 -15 -21 -33z"/>
<path d="M643 2563 c9 -2 23 -2 30 0 6 3 -1 5 -18 5 -16 0 -22 -2 -12 -5z"/>
<path d="M698 2553 c6 -2 18 -2 25 0 6 3 1 5 -13 5 -14 0 -19 -2 -12 -5z"/>
<path d="M2921 2533 c-10 -26 -10 -27 4 -9 8 11 15 23 15 28 0 15 -7 8 -19
-19z"/>
<path d="M3297 2513 c38 -7 73 -59 73 -108 0 -80 -33 -133 -82 -131 -25 2 -79
40 -76 55 1 3 -2 22 -6 42 -8 36 5 74 38 120 6 8 -4 0 -21 -19 -32 -34 -34
-35 -53 -17 -19 17 -19 16 -31 -30 -11 -42 -16 -49 -58 -67 -25 -10 -63 -36
-85 -56 -32 -30 -38 -33 -34 -16 3 12 1 28 -4 35 -8 11 -9 10 -4 -3 4 -13 0
-18 -14 -18 -22 0 -40 -36 -64 -127 -8 -32 -18 -66 -21 -75 -10 -26 19 -23 39
5 9 12 14 15 10 7 -4 -8 23 13 60 48 37 35 80 65 95 68 23 5 29 15 46 71 l20
65 8 -35 c12 -51 72 -117 106 -117 17 0 37 -10 51 -25 13 -14 30 -23 37 -21
19 8 16 -5 -4 -20 -16 -12 -16 -12 5 -7 13 3 28 17 33 31 8 20 6 29 -11 44
-27 25 -26 34 11 102 27 49 31 65 27 108 -6 59 -30 87 -79 92 -19 2 -24 1 -12
-1z m8 -262 c-3 -6 -11 -11 -17 -11 -6 0 -6 6 2 15 14 17 26 13 15 -4z m-355
-28 c-11 -17 -11 -17 -6 0 3 10 6 24 7 30 0 9 2 9 5 0 3 -7 0 -20 -6 -30z"/>
<path d="M2450 2507 c0 -2 15 -16 33 -33 l32 -29 -29 33 c-28 30 -36 37 -36
29z"/>
<path d="M2979 2399 c-16 -32 -18 -44 -8 -53 9 -8 10 -8 5 1 -4 7 3 30 14 53
11 22 18 40 15 40 -2 0 -14 -19 -26 -41z"/>
<path d="M3648 2433 c12 -2 30 -2 40 0 9 3 -1 5 -23 4 -22 0 -30 -2 -17 -4z"/>
<path d="M2520 2426 c0 -2 8 -10 18 -17 15 -13 16 -12 3 4 -13 16 -21 21 -21
13z"/>
<path d="M3655 2409 l-40 -6 35 -2 c29 -2 32 -4 15 -11 l-20 -9 20 -1 c17 -2
16 -3 -5 -9 -24 -7 -24 -8 8 -13 26 -4 35 0 44 15 15 29 -8 44 -57 36z"/>
<path d="M3586 2338 c3 -5 10 -6 15 -3 13 9 11 12 -6 12 -8 0 -12 -4 -9 -9z"/>
<path d="M3235 2310 c10 -11 20 -20 23 -20 3 0 -3 9 -13 20 -10 11 -20 20 -23
20 -3 0 3 -9 13 -20z"/>
<path d="M2718 2313 c6 -2 18 -2 25 0 6 3 1 5 -13 5 -14 0 -19 -2 -12 -5z"/>
<path d="M2622 2265 c12 -24 23 -43 26 -41 4 5 -36 86 -43 86 -3 0 5 -20 17
-45z"/>
<path d="M2746 2291 c-3 -5 1 -11 9 -14 9 -4 12 -1 8 9 -6 16 -10 17 -17 5z"/>
<path d="M2410 2240 c0 -5 16 -10 35 -10 19 0 35 5 35 10 0 6 -16 10 -35 10
-19 0 -35 -4 -35 -10z"/>
<path d="M2501 2241 c-11 -7 -9 -10 8 -16 22 -7 41 0 41 16 0 11 -30 12 -49 0z"/>
<path d="M3118 2139 l-27 -59 28 0 c26 0 29 4 35 45 12 74 -5 80 -36 14z"/>
<path d="M3560 2186 c0 -19 14 -28 34 -20 13 5 14 9 5 20 -15 18 -39 18 -39 0z"/>
<path d="M2370 2175 c10 -12 16 -13 29 -3 9 7 18 14 20 15 2 2 -10 3 -29 3
-28 0 -31 -2 -20 -15z"/>
<path d="M2454 2154 l-27 -35 36 -37 c39 -38 45 -38 101 4 19 14 19 15 -15 50
-55 58 -64 59 -95 18z"/>
<path d="M3610 2142 c9 -19 30 -23 30 -5 0 4 -3 3 -7 0 -3 -4 -12 1 -20 11
-13 15 -13 15 -3 -6z"/>
<path d="M3770 2140 c-12 -8 -12 -10 4 -10 15 0 16 -3 7 -14 -9 -11 -9 -16 1
-22 7 -4 10 -4 6 1 -4 4 -4 13 2 19 13 17 -2 37 -20 26z"/>
<path d="M3800 2101 c0 -6 4 -13 10 -16 6 -3 7 1 4 9 -7 18 -14 21 -14 7z"/>
<path d="M3435 1989 c-16 -11 -55 -27 -84 -35 l-55 -17 55 -17 c70 -22 175
-75 218 -111 19 -15 38 -26 43 -23 4 3 5 -2 1 -11 -5 -16 -4 -16 24 -1 66 34
49 79 -38 103 -92 25 -61 39 58 25 94 -11 99 -10 120 10 13 12 23 24 23 28 0
4 -58 13 -130 20 -103 10 -133 16 -146 31 -21 24 -50 23 -89 -2z"/>
<path d="M416 1989 c2 -4 1 -9 -3 -12 -5 -2 -3 -2 4 -1 6 2 14 0 16 -4 2 -4 2
-2 1 5 -2 6 2 14 9 16 7 3 2 4 -10 4 -12 -1 -20 -4 -17 -8z"/>
<path d="M360 1980 c-12 -7 -10 -9 8 -7 12 0 22 5 22 9 0 11 -12 10 -30 -2z"/>
<path d="M296 1685 c22 -17 69 -20 59 -4 -4 6 -14 8 -22 5 -8 -3 -11 -1 -8 4
4 6 -6 10 -21 10 -27 0 -27 -1 -8 -15z"/>
<path d="M670 1629 c0 -5 5 -7 10 -4 6 3 10 8 10 11 0 2 -4 4 -10 4 -5 0 -10
-5 -10 -11z"/>
<path d="M708 1598 c-36 -13 -37 -32 -2 -24 15 4 39 10 55 13 16 3 26 9 23 14
-7 11 -41 10 -76 -3z"/>
<path d="M574 1530 c-23 -10 -45 -24 -49 -31 -6 -8 -4 -10 4 -4 7 4 25 8 39
10 15 2 44 10 65 18 30 11 35 16 22 21 -24 9 -35 7 -81 -14z"/>
<path d="M770 1476 c79 -34 181 -85 210 -106 14 -9 36 -21 50 -25 39 -11 -99
68 -198 114 -49 23 -95 41 -103 41 -8 -1 11 -11 41 -24z"/>
<path d="M532 1443 c-6 -2 -10 -9 -7 -13 7 -11 35 -2 35 11 0 10 -8 10 -28 2z"/>
<path d="M487 1216 c-7 -18 1 -26 25 -26 13 0 18 6 16 17 -4 22 -34 29 -41 9z"/>
<path d="M3035 1121 c-6 -11 13 -26 22 -17 4 3 1 6 -6 6 -7 0 -9 5 -6 10 3 6
4 10 1 10 -3 0 -7 -4 -11 -9z"/>
<path d="M2260 845 c0 -5 5 -17 10 -25 5 -8 10 -10 10 -5 0 6 -5 17 -10 25 -5
8 -10 11 -10 5z"/>
<path d="M1637 796 c-4 -10 -1 -13 8 -9 8 3 12 9 9 14 -7 12 -11 11 -17 -5z"/>
<path d="M1871 680 c0 -36 2 -41 10 -27 7 12 7 27 0 45 -9 25 -9 24 -10 -18z"/>
</g>
</svg>
