<svg xmlns="http://www.w3.org/2000/svg" aria-hidden="true" style="position:absolute;width:0;height:0;overflow:hidden">
  <defs>
    <symbol id="icon-map-pin" viewBox="0 0 29 32">
      <path stroke-linejoin="round" stroke-width="2.4" d="M14.4 30.656s-12-8-12-17.328a12 12 0 0 1 3.504-8.48 12.014 12.014 0 0 1 8.496-3.52 12.016 12.016 0 0 1 12 12c0 9.328-12 17.328-12 17.328z"/>
      <path stroke-linejoin="round" stroke-width="2.4" d="M14.4 17.328c-2.224 0-4-1.792-4-4s1.776-4 4-4c2.208 0 4 1.792 4 4s-1.792 4-4 4z"/>
    </symbol>
    <symbol id="icon-Button" viewBox="0 0 32 32">
      <path d="M1.824 6.056h8.68a.3.3 0 0 0 .2-.08l.832-.816c.24-.232.568-.36.912-.36h13.168c.616 0 1.184.296 1.52.792l1.584 2.312c.224.328.24.744.056 1.096-.192.344-.56.56-.968.56h-6.784v.672h3.472c.92 0 1.752.528 2.112 1.36l2.04 4.656 1.784.696A2.417 2.417 0 0 1 32 19.2v4.312c0 .64-.544 1.168-1.2 1.168h-2.072c-.24 1.424-1.52 2.52-3.048 2.52s-2.8-1.096-3.048-2.52H11.296c-.248 1.424-1.52 2.52-3.048 2.52s-2.8-1.096-3.048-2.52H1.056A1.052 1.052 0 0 1 0 23.64V7.84c0-.984.816-1.784 1.824-1.784zM25.68 26.208c1.144 0 2.08-.904 2.08-2.024s-.936-2.024-2.08-2.024c-1.144 0-2.08.904-2.08 2.024s.936 2.024 2.08 2.024zm-4.656-2.512h1.608c.008-.032.016-.056.016-.08.008-.016.008-.032.008-.048.008-.04.024-.072.032-.112v-.024c.016-.048.032-.096.04-.136.008-.016.016-.024.016-.04.008-.032.024-.064.032-.096l.024-.048c.008-.024.016-.056.032-.08.008-.016.016-.04.024-.056.008-.024.016-.048.032-.072.008-.016.016-.04.024-.056.016-.024.024-.048.04-.072.008-.016.016-.032.032-.048a.324.324 0 0 1 .04-.072c.008-.016.016-.032.032-.048.016-.024.024-.048.04-.072.016-.016.024-.032.032-.048.016-.024.04-.048.056-.072a.14.14 0 0 1 .032-.04l.072-.096c.008 0 .008-.008.016-.008a.55.55 0 0 1 .088-.104c.008-.016.024-.024.032-.032.024-.024.04-.048.064-.072a.096.096 0 0 0 .04-.04c.024-.016.04-.032.064-.056a.096.096 0 0 0 .04-.04.444.444 0 0 0 .064-.048l.048-.04c.024-.016.04-.032.064-.048.016-.016.032-.024.048-.032l.072-.048c.016-.016.032-.024.048-.032l.072-.048c.016-.008.032-.024.048-.032a.374.374 0 0 1 .08-.04c.016-.008.024-.016.04-.024.04-.024.08-.04.12-.064h.008c.04-.024.088-.04.128-.056l.048-.024c.024-.008.056-.016.088-.032.016-.008.032-.008.056-.016s.048-.024.08-.032c.016 0 .04-.008.056-.016.032-.008.056-.016.08-.024.024 0 .04-.008.064-.008l.08-.024c.024 0 .04-.008.064-.008a.288.288 0 0 1 .088-.016c.016-.008.04-.008.056-.008.032-.008.064-.008.088-.016.024 0 .04 0 .064-.008.032 0 .064 0 .096-.008H25.88a.456.456 0 0 0 .104.008c.016.008.04.008.056.008.032.008.056.008.088.016.024 0 .04 0 .064.008.024 0 .056.008.08.016.024 0 .04.008.064.008l.08.024c.024 0 .04.008.064.008l.08.024c.016.008.04.016.056.016.032.008.056.024.088.032.016.008.032.008.048.016a.451.451 0 0 0 .096.032c.008.008.024.016.04.024.04.016.088.032.128.056h.008c.04.024.08.04.12.064.016.008.024.016.04.024.032.008.056.024.08.04.016.008.032.024.048.032l.072.048c.016.008.04.016.056.032s.04.032.064.048c.016.008.032.016.048.032.024.016.04.032.064.048l.048.04c.024.016.04.032.064.048.016.016.024.032.04.04.024.024.04.04.064.056.016.016.024.032.04.04a.518.518 0 0 1 .064.072.062.062 0 0 1 .032.032c.032.032.064.064.096.104l.008.008a.847.847 0 0 0 .08.096c.008.016.016.024.024.04.016.024.04.048.056.072.008.016.016.032.032.048l.048.072.024.048.048.072.024.048c.016.024.024.048.04.072.008.016.016.04.024.056.016.024.024.048.04.072.008.016.016.04.016.056.016.024.024.056.04.08 0 .016.008.032.016.048.008.032.024.064.032.096.008.016.008.024.016.04.016.04.024.088.04.136v.024a.59.59 0 0 1 .032.112c0 .016.008.032.008.048.008.024.008.048.016.08H30.8a.186.186 0 0 0 .184-.184v-2.064H30.2v-.984h.784V19.2c0-.6-.36-1.128-.928-1.344l-1.888-.736h-7.144v6.576zm0-7.56h6.472l-1.816-4.16c-.2-.464-.664-.76-1.184-.76h-3.472v4.92zM8.248 26.208c1.144 0 2.08-.904 2.08-2.024s-.936-2.024-2.08-2.024h-.104c-.96.048-1.744.728-1.928 1.616-.008.032-.016.064-.024.104-.008.064-.016.128-.016.2-.008.032-.008.072-.008.104 0 1.12.936 2.024 2.08 2.024zm-7.24-5.744h.784v.984h-.784v2.192c0 .032.024.056.048.056H5.2c.008-.032.008-.056.016-.08 0-.016.008-.032.008-.048a.59.59 0 0 1 .032-.112v-.024c.016-.048.032-.088.04-.136a.135.135 0 0 0 .016-.04c.008-.032.024-.064.032-.096l.024-.048c.008-.024.016-.056.032-.08.008-.016.016-.04.024-.056.008-.024.016-.048.032-.072.008-.016.016-.04.024-.056.016-.024.024-.048.04-.072.008-.016.016-.032.032-.048a.324.324 0 0 1 .04-.072c.008-.016.016-.032.032-.048a.324.324 0 0 1 .04-.072c.016-.016.024-.032.032-.048.016-.024.04-.048.056-.072a.14.14 0 0 1 .032-.04.85.85 0 0 1 .072-.088c0-.008.008-.016.008-.016.032-.04.064-.072.096-.104.008-.016.024-.024.032-.032.024-.024.04-.048.064-.072.016-.008.024-.024.04-.04.024-.016.04-.032.064-.056a.096.096 0 0 0 .04-.04c.024-.016.048-.032.064-.048s.032-.024.048-.04c.024-.016.04-.032.064-.048.016-.016.032-.024.048-.032l.072-.048c.016-.016.032-.024.048-.032l.072-.048c.016-.008.032-.024.048-.032a.25.25 0 0 1 .08-.04c.016-.008.024-.016.04-.024.04-.024.08-.04.12-.064h.008c.04-.024.088-.04.128-.056l.048-.024c.024-.008.056-.016.088-.032.016-.008.032-.008.056-.016s.048-.024.08-.032c.016 0 .04-.008.056-.016.032-.008.056-.016.08-.024.024 0 .04-.008.064-.008l.08-.024c.024 0 .04-.008.064-.008a.284.284 0 0 1 .08-.016c.024-.008.04-.008.064-.008.032-.008.056-.008.088-.016.024 0 .04 0 .056-.008.04 0 .072 0 .104-.008H8.448a.423.423 0 0 0 .104.008c.016.008.032.008.056.008.032.008.056.008.088.016.024 0 .04 0 .064.008.024 0 .056.008.08.016.024 0 .04.008.064.008l.08.024c.024 0 .04.008.064.008l.08.024c.016.008.04.016.056.016.032.008.056.024.088.032.016.008.032.008.048.016a.451.451 0 0 0 .096.032c.008.008.024.016.04.024.04.016.088.032.128.056h.008c.04.024.08.04.12.064.016.008.024.016.04.024.032.008.056.024.08.04.016.008.032.024.048.032l.072.048a.459.459 0 0 1 .056.032c.016.016.04.032.064.048.016.008.032.016.048.032.024.016.04.032.064.048.016.016.032.024.048.04s.04.032.064.048a.096.096 0 0 0 .04.04c.024.024.04.04.064.056.016.016.024.032.04.04a.518.518 0 0 1 .064.072.062.062 0 0 1 .032.032c.032.032.064.064.096.104l.008.008.072.096a.14.14 0 0 1 .032.04c.016.024.04.048.056.072.008.016.016.032.032.048a.324.324 0 0 1 .04.072.167.167 0 0 1 .032.048.324.324 0 0 1 .04.072.167.167 0 0 1 .032.048c.016.024.024.048.04.072.008.016.016.04.024.056.016.024.024.048.032.072.008.016.016.04.024.056.016.024.024.056.04.08 0 .016.008.032.016.048.008.032.024.064.032.096.008.016.008.024.016.04.008.04.024.088.04.136v.024c.016.032.024.072.032.112 0 .016.008.032.008.048.008.024.008.048.016.08h8.712V9.064c0-.272.232-.488.504-.488h7.296c.016 0 .048 0 .072-.048.024-.04.008-.072 0-.08l-1.576-2.312a.831.831 0 0 0-.688-.352H12.448a.292.292 0 0 0-.2.072l-.832.816c-.24.24-.568.368-.912.368h-8.68a.806.806 0 0 0-.816.8v12.624z"/>
      <path d="M3.872 9.832h6.168c.712 0 1.296.568 1.296 1.264v2.872c0 .696-.584 1.264-1.296 1.264H3.872c-.712 0-1.296-.568-1.296-1.264v-2.872c0-.696.584-1.264 1.296-1.264zm-.288 4.136c0 .152.128.272.288.272h6.168c.16 0 .288-.12.288-.272v-2.872a.285.285 0 0 0-.288-.28H3.872a.285.285 0 0 0-.288.28v2.872z"/>
    </symbol>
    <symbol id="icon-Button-1" viewBox="0 0 32 32">
      <path d="M1.824 6.056h8.68a.3.3 0 0 0 .2-.08l.832-.816c.24-.232.568-.36.912-.36h13.168c.616 0 1.184.296 1.52.792l1.584 2.312c.224.328.24.744.056 1.096-.192.344-.56.56-.968.56h-6.784v.672h3.472c.92 0 1.752.528 2.112 1.36l2.04 4.656 1.784.696A2.417 2.417 0 0 1 32 19.2v4.312c0 .64-.544 1.168-1.2 1.168h-2.072c-.24 1.424-1.52 2.52-3.048 2.52s-2.8-1.096-3.048-2.52H11.296c-.248 1.424-1.52 2.52-3.048 2.52s-2.8-1.096-3.048-2.52H1.056A1.052 1.052 0 0 1 0 23.64V7.84c0-.984.816-1.784 1.824-1.784zM25.68 26.208c1.144 0 2.08-.904 2.08-2.024s-.936-2.024-2.08-2.024c-1.144 0-2.08.904-2.08 2.024s.936 2.024 2.08 2.024zm-4.656-2.512h1.608c.008-.032.016-.056.016-.08.008-.016.008-.032.008-.048.008-.04.024-.072.032-.112v-.024c.016-.048.032-.096.04-.136.008-.016.016-.024.016-.04.008-.032.024-.064.032-.096l.024-.048c.008-.024.016-.056.032-.08.008-.016.016-.04.024-.056.008-.024.016-.048.032-.072.008-.016.016-.04.024-.056.016-.024.024-.048.04-.072.008-.016.016-.032.032-.048a.324.324 0 0 1 .04-.072c.008-.016.016-.032.032-.048.016-.024.024-.048.04-.072.016-.016.024-.032.032-.048.016-.024.04-.048.056-.072a.14.14 0 0 1 .032-.04l.072-.096c.008 0 .008-.008.016-.008a.55.55 0 0 1 .088-.104c.008-.016.024-.024.032-.032.024-.024.04-.048.064-.072a.096.096 0 0 0 .04-.04c.024-.016.04-.032.064-.056a.096.096 0 0 0 .04-.04.444.444 0 0 0 .064-.048l.048-.04c.024-.016.04-.032.064-.048.016-.016.032-.024.048-.032l.072-.048c.016-.016.032-.024.048-.032l.072-.048c.016-.008.032-.024.048-.032a.374.374 0 0 1 .08-.04c.016-.008.024-.016.04-.024.04-.024.08-.04.12-.064h.008c.04-.024.088-.04.128-.056l.048-.024c.024-.008.056-.016.088-.032.016-.008.032-.008.056-.016s.048-.024.08-.032c.016 0 .04-.008.056-.016.032-.008.056-.016.08-.024.024 0 .04-.008.064-.008l.08-.024c.024 0 .04-.008.064-.008a.288.288 0 0 1 .088-.016c.016-.008.04-.008.056-.008.032-.008.064-.008.088-.016.024 0 .04 0 .064-.008.032 0 .064 0 .096-.008H25.88a.456.456 0 0 0 .104.008c.016.008.04.008.056.008.032.008.056.008.088.016.024 0 .04 0 .064.008.024 0 .056.008.08.016.024 0 .04.008.064.008l.08.024c.024 0 .04.008.064.008l.08.024c.016.008.04.016.056.016.032.008.056.024.088.032.016.008.032.008.048.016a.451.451 0 0 0 .096.032c.008.008.024.016.04.024.04.016.088.032.128.056h.008c.04.024.08.04.12.064.016.008.024.016.04.024.032.008.056.024.08.04.016.008.032.024.048.032l.072.048c.016.008.04.016.056.032s.04.032.064.048c.016.008.032.016.048.032.024.016.04.032.064.048l.048.04c.024.016.04.032.064.048.016.016.024.032.04.04.024.024.04.04.064.056.016.016.024.032.04.04a.518.518 0 0 1 .064.072.062.062 0 0 1 .032.032c.032.032.064.064.096.104l.008.008a.847.847 0 0 0 .08.096c.008.016.016.024.024.04.016.024.04.048.056.072.008.016.016.032.032.048l.048.072.024.048.048.072.024.048c.016.024.024.048.04.072.008.016.016.04.024.056.016.024.024.048.04.072.008.016.016.04.016.056.016.024.024.056.04.08 0 .016.008.032.016.048.008.032.024.064.032.096.008.016.008.024.016.04.016.04.024.088.04.136v.024a.59.59 0 0 1 .032.112c0 .016.008.032.008.048.008.024.008.048.016.08H30.8a.186.186 0 0 0 .184-.184v-2.064H30.2v-.984h.784V19.2c0-.6-.36-1.128-.928-1.344l-1.888-.736h-7.144v6.576zm0-7.56h6.472l-1.816-4.16c-.2-.464-.664-.76-1.184-.76h-3.472v4.92zM8.248 26.208c1.144 0 2.08-.904 2.08-2.024s-.936-2.024-2.08-2.024h-.104c-.96.048-1.744.728-1.928 1.616-.008.032-.016.064-.024.104-.008.064-.016.128-.016.2-.008.032-.008.072-.008.104 0 1.12.936 2.024 2.08 2.024zm-7.24-5.744h.784v.984h-.784v2.192c0 .032.024.056.048.056H5.2c.008-.032.008-.056.016-.08 0-.016.008-.032.008-.048a.59.59 0 0 1 .032-.112v-.024c.016-.048.032-.088.04-.136a.135.135 0 0 0 .016-.04c.008-.032.024-.064.032-.096l.024-.048c.008-.024.016-.056.032-.08.008-.016.016-.04.024-.056.008-.024.016-.048.032-.072.008-.016.016-.04.024-.056.016-.024.024-.048.04-.072.008-.016.016-.032.032-.048a.324.324 0 0 1 .04-.072c.008-.016.016-.032.032-.048a.324.324 0 0 1 .04-.072c.016-.016.024-.032.032-.048.016-.024.04-.048.056-.072a.14.14 0 0 1 .032-.04.85.85 0 0 1 .072-.088c0-.008.008-.016.008-.016.032-.04.064-.072.096-.104.008-.016.024-.024.032-.032.024-.024.04-.048.064-.072.016-.008.024-.024.04-.04.024-.016.04-.032.064-.056a.096.096 0 0 0 .04-.04c.024-.016.048-.032.064-.048s.032-.024.048-.04c.024-.016.04-.032.064-.048.016-.016.032-.024.048-.032l.072-.048c.016-.016.032-.024.048-.032l.072-.048c.016-.008.032-.024.048-.032a.25.25 0 0 1 .08-.04c.016-.008.024-.016.04-.024.04-.024.08-.04.12-.064h.008c.04-.024.088-.04.128-.056l.048-.024c.024-.008.056-.016.088-.032.016-.008.032-.008.056-.016s.048-.024.08-.032c.016 0 .04-.008.056-.016.032-.008.056-.016.08-.024.024 0 .04-.008.064-.008l.08-.024c.024 0 .04-.008.064-.008a.284.284 0 0 1 .08-.016c.024-.008.04-.008.064-.008.032-.008.056-.008.088-.016.024 0 .04 0 .056-.008.04 0 .072 0 .104-.008H8.448a.423.423 0 0 0 .104.008c.016.008.032.008.056.008.032.008.056.008.088.016.024 0 .04 0 .064.008.024 0 .056.008.08.016.024 0 .04.008.064.008l.08.024c.024 0 .04.008.064.008l.08.024c.016.008.04.016.056.016.032.008.056.024.088.032.016.008.032.008.048.016a.451.451 0 0 0 .096.032c.008.008.024.016.04.024.04.016.088.032.128.056h.008c.04.024.08.04.12.064.016.008.024.016.04.024.032.008.056.024.08.04.016.008.032.024.048.032l.072.048a.459.459 0 0 1 .056.032c.016.016.04.032.064.048.016.008.032.016.048.032.024.016.04.032.064.048.016.016.032.024.048.04s.04.032.064.048a.096.096 0 0 0 .04.04c.024.024.04.04.064.056.016.016.024.032.04.04a.518.518 0 0 1 .064.072.062.062 0 0 1 .032.032c.032.032.064.064.096.104l.008.008.072.096a.14.14 0 0 1 .032.04c.016.024.04.048.056.072.008.016.016.032.032.048a.324.324 0 0 1 .04.072.167.167 0 0 1 .032.048.324.324 0 0 1 .04.072.167.167 0 0 1 .032.048c.016.024.024.048.04.072.008.016.016.04.024.056.016.024.024.048.032.072.008.016.016.04.024.056.016.024.024.056.04.08 0 .016.008.032.016.048.008.032.024.064.032.096.008.016.008.024.016.04.008.04.024.088.04.136v.024c.016.032.024.072.032.112 0 .016.008.032.008.048.008.024.008.048.016.08h8.712V9.064c0-.272.232-.488.504-.488h7.296c.016 0 .048 0 .072-.048.024-.04.008-.072 0-.08l-1.576-2.312a.831.831 0 0 0-.688-.352H12.448a.292.292 0 0 0-.2.072l-.832.816c-.24.24-.568.368-.912.368h-8.68a.806.806 0 0 0-.816.8v12.624z"/>
      <path d="M14.08 9.832h3.184c.648 0 1.176.512 1.176 1.144v10.528a.505.505 0 0 1-.504.496h-4.52a.5.5 0 0 1-.504-.496V10.976c0-.632.52-1.144 1.168-1.144zm-.16 11.184h3.504v-5.792H13.92v5.792zm0-6.776h3.504v-3.264a.16.16 0 0 0-.16-.16H14.08a.16.16 0 0 0-.16.16v3.264z"/>
    </symbol>
    <symbol id="icon-Button-2" viewBox="0 0 32 32">
      <path stroke-linejoin="round" stroke-width="2.4" d="M25.328 5.328A2.667 2.667 0 0 1 28 8v18.656c0 1.472-1.2 2.672-2.672 2.672H6.656A2.663 2.663 0 0 1 4 26.656V8a2.653 2.653 0 0 1 2.656-2.672h18.672z"/>
      <path stroke-linecap="round" stroke-linejoin="round" stroke-width="2.4" d="M21.328 2.656v5.328M10.656 2.656v5.328M4 13.328h24"/>
    </symbol>
    <symbol id="icon-camper" viewBox="0 0 32 32">
      <path d="M1.824 6.056h8.68a.3.3 0 0 0 .2-.08l.832-.816c.24-.232.568-.36.912-.36h13.168c.616 0 1.184.296 1.52.792l1.584 2.312c.224.328.24.744.056 1.096-.192.344-.56.56-.968.56h-6.784v.672h3.472c.92 0 1.752.528 2.112 1.36l2.04 4.656 1.784.696A2.417 2.417 0 0 1 32 19.2v4.312c0 .64-.544 1.168-1.2 1.168h-2.072c-.24 1.424-1.52 2.52-3.048 2.52s-2.8-1.096-3.048-2.52H11.296c-.248 1.424-1.52 2.52-3.048 2.52s-2.8-1.096-3.048-2.52H1.056A1.052 1.052 0 0 1 0 23.64V7.84c0-.984.816-1.784 1.824-1.784zM25.68 26.208c1.144 0 2.08-.904 2.08-2.024s-.936-2.024-2.08-2.024c-1.144 0-2.08.904-2.08 2.024s.936 2.024 2.08 2.024zm-4.656-2.512h1.608c.008-.032.016-.056.016-.08.008-.016.008-.032.008-.048.008-.04.024-.072.032-.112v-.024c.016-.048.032-.096.04-.136.008-.016.016-.024.016-.04.008-.032.024-.064.032-.096l.024-.048c.008-.024.016-.056.032-.08.008-.016.016-.04.024-.056.008-.024.016-.048.032-.072.008-.016.016-.04.024-.056.016-.024.024-.048.04-.072.008-.016.016-.032.032-.048a.324.324 0 0 1 .04-.072c.008-.016.016-.032.032-.048.016-.024.024-.048.04-.072.016-.016.024-.032.032-.048.016-.024.04-.048.056-.072a.14.14 0 0 1 .032-.04l.072-.096c.008 0 .008-.008.016-.008a.55.55 0 0 1 .088-.104c.008-.016.024-.024.032-.032.024-.024.04-.048.064-.072a.096.096 0 0 0 .04-.04c.024-.016.04-.032.064-.056a.096.096 0 0 0 .04-.04.444.444 0 0 0 .064-.048l.048-.04c.024-.016.04-.032.064-.048.016-.016.032-.024.048-.032l.072-.048c.016-.016.032-.024.048-.032l.072-.048c.016-.008.032-.024.048-.032a.374.374 0 0 1 .08-.04c.016-.008.024-.016.04-.024.04-.024.08-.04.12-.064h.008c.04-.024.088-.04.128-.056l.048-.024c.024-.008.056-.016.088-.032.016-.008.032-.008.056-.016s.048-.024.08-.032c.016 0 .04-.008.056-.016.032-.008.056-.016.08-.024.024 0 .04-.008.064-.008l.08-.024c.024 0 .04-.008.064-.008a.288.288 0 0 1 .088-.016c.016-.008.04-.008.056-.008.032-.008.064-.008.088-.016.024 0 .04 0 .064-.008.032 0 .064 0 .096-.008H25.88a.456.456 0 0 0 .104.008c.016.008.04.008.056.008.032.008.056.008.088.016.024 0 .04 0 .064.008.024 0 .056.008.08.016.024 0 .04.008.064.008l.08.024c.024 0 .04.008.064.008l.08.024c.016.008.04.016.056.016.032.008.056.024.088.032.016.008.032.008.048.016a.451.451 0 0 0 .096.032c.008.008.024.016.04.024.04.016.088.032.128.056h.008c.04.024.08.04.12.064.016.008.024.016.04.024.032.008.056.024.08.04.016.008.032.024.048.032l.072.048c.016.008.04.016.056.032s.04.032.064.048c.016.008.032.016.048.032.024.016.04.032.064.048l.048.04c.024.016.04.032.064.048.016.016.024.032.04.04.024.024.04.04.064.056.016.016.024.032.04.04a.518.518 0 0 1 .064.072.062.062 0 0 1 .032.032c.032.032.064.064.096.104l.008.008a.847.847 0 0 0 .08.096c.008.016.016.024.024.04.016.024.04.048.056.072.008.016.016.032.032.048l.048.072.024.048.048.072.024.048c.016.024.024.048.04.072.008.016.016.04.024.056.016.024.024.048.04.072.008.016.016.04.016.056.016.024.024.056.04.08 0 .016.008.032.016.048.008.032.024.064.032.096.008.016.008.024.016.04.016.04.024.088.04.136v.024a.59.59 0 0 1 .032.112c0 .016.008.032.008.048.008.024.008.048.016.08H30.8a.186.186 0 0 0 .184-.184v-2.064H30.2v-.984h.784V19.2c0-.6-.36-1.128-.928-1.344l-1.888-.736h-7.144v6.576zm0-7.56h6.472l-1.816-4.16c-.2-.464-.664-.76-1.184-.76h-3.472v4.92zM8.248 26.208c1.144 0 2.08-.904 2.08-2.024s-.936-2.024-2.08-2.024h-.104c-.96.048-1.744.728-1.928 1.616-.008.032-.016.064-.024.104-.008.064-.016.128-.016.2-.008.032-.008.072-.008.104 0 1.12.936 2.024 2.08 2.024zm-7.24-5.744h.784v.984h-.784v2.192c0 .032.024.056.048.056H5.2c.008-.032.008-.056.016-.08 0-.016.008-.032.008-.048a.59.59 0 0 1 .032-.112v-.024c.016-.048.032-.088.04-.136a.135.135 0 0 0 .016-.04c.008-.032.024-.064.032-.096l.024-.048c.008-.024.016-.056.032-.08.008-.016.016-.04.024-.056.008-.024.016-.048.032-.072.008-.016.016-.04.024-.056.016-.024.024-.048.04-.072.008-.016.016-.032.032-.048a.324.324 0 0 1 .04-.072c.008-.016.016-.032.032-.048a.324.324 0 0 1 .04-.072c.016-.016.024-.032.032-.048.016-.024.04-.048.056-.072a.14.14 0 0 1 .032-.04.85.85 0 0 1 .072-.088c0-.008.008-.016.008-.016.032-.04.064-.072.096-.104.008-.016.024-.024.032-.032.024-.024.04-.048.064-.072.016-.008.024-.024.04-.04.024-.016.04-.032.064-.056a.096.096 0 0 0 .04-.04c.024-.016.048-.032.064-.048s.032-.024.048-.04c.024-.016.04-.032.064-.048.016-.016.032-.024.048-.032l.072-.048c.016-.016.032-.024.048-.032l.072-.048c.016-.008.032-.024.048-.032a.25.25 0 0 1 .08-.04c.016-.008.024-.016.04-.024.04-.024.08-.04.12-.064h.008c.04-.024.088-.04.128-.056l.048-.024c.024-.008.056-.016.088-.032.016-.008.032-.008.056-.016s.048-.024.08-.032c.016 0 .04-.008.056-.016.032-.008.056-.016.08-.024.024 0 .04-.008.064-.008l.08-.024c.024 0 .04-.008.064-.008a.284.284 0 0 1 .08-.016c.024-.008.04-.008.064-.008.032-.008.056-.008.088-.016.024 0 .04 0 .056-.008.04 0 .072 0 .104-.008H8.448a.423.423 0 0 0 .104.008c.016.008.032.008.056.008.032.008.056.008.088.016.024 0 .04 0 .064.008.024 0 .056.008.08.016.024 0 .04.008.064.008l.08.024c.024 0 .04.008.064.008l.08.024c.016.008.04.016.056.016.032.008.056.024.088.032.016.008.032.008.048.016a.451.451 0 0 0 .096.032c.008.008.024.016.04.024.04.016.088.032.128.056h.008c.04.024.08.04.12.064.016.008.024.016.04.024.032.008.056.024.08.04.016.008.032.024.048.032l.072.048a.459.459 0 0 1 .056.032c.016.016.04.032.064.048.016.008.032.016.048.032.024.016.04.032.064.048.016.016.032.024.048.04s.04.032.064.048a.096.096 0 0 0 .04.04c.024.024.04.04.064.056.016.016.024.032.04.04a.518.518 0 0 1 .064.072.062.062 0 0 1 .032.032c.032.032.064.064.096.104l.008.008.072.096a.14.14 0 0 1 .032.04c.016.024.04.048.056.072.008.016.016.032.032.048a.324.324 0 0 1 .04.072.167.167 0 0 1 .032.048.324.324 0 0 1 .04.072.167.167 0 0 1 .032.048c.016.024.024.048.04.072.008.016.016.04.024.056.016.024.024.048.032.072.008.016.016.04.024.056.016.024.024.056.04.08 0 .016.008.032.016.048.008.032.024.064.032.096.008.016.008.024.016.04.008.04.024.088.04.136v.024c.016.032.024.072.032.112 0 .016.008.032.008.048.008.024.008.048.016.08h8.712V9.064c0-.272.232-.488.504-.488h7.296c.016 0 .048 0 .072-.048.024-.04.008-.072 0-.08l-1.576-2.312a.831.831 0 0 0-.688-.352H12.448a.292.292 0 0 0-.2.072l-.832.816c-.24.24-.568.368-.912.368h-8.68a.806.806 0 0 0-.816.8v12.624z"/>
      <path d="M14.08 9.832h3.184c.648 0 1.176.512 1.176 1.144v10.528a.505.505 0 0 1-.504.496h-4.52a.5.5 0 0 1-.504-.496V10.976c0-.632.52-1.144 1.168-1.144zm-.16 11.184h3.504v-5.792H13.92v5.792zm0-6.776h3.504v-3.264a.16.16 0 0 0-.16-.16H14.08a.16.16 0 0 0-.16.16v3.264zM3.872 9.832h6.168c.712 0 1.296.568 1.296 1.264v2.872c0 .696-.584 1.264-1.296 1.264H3.872c-.712 0-1.296-.568-1.296-1.264v-2.872c0-.696.584-1.264 1.296-1.264zm-.288 4.136c0 .152.128.272.288.272h6.168c.16 0 .288-.12.288-.272v-2.872a.285.285 0 0 0-.288-.28H3.872a.285.285 0 0 0-.288.28v2.872z"/>
    </symbol>
    <symbol id="icon-Container" viewBox="0 0 32 32">
      <path stroke-linecap="round" stroke-linejoin="round" stroke-width="2.24" d="M6 14.992V8.496c0-.672.256-1.296.72-1.776A2.532 2.532 0 0 1 8.496 6h14.992c.672 0 1.296.256 1.776.72.464.48.72 1.104.736 1.776v6.496H6zM2.992 26v-7.008c0-1.056.432-2.08 1.168-2.832a4.078 4.078 0 0 1 2.832-1.168h18c1.056 0 2.08.432 2.832 1.168a4.078 4.078 0 0 1 1.168 2.832V26"/>
      <path stroke-linecap="round" stroke-linejoin="round" stroke-width="2.24" d="M2.992 26v-.512c0-.4.16-.768.448-1.056A1.436 1.436 0 0 1 4.496 24h22.992c.4 0 .784.144 1.056.432.288.288.448.656.448 1.056V26m-22-11.008V14a1.998 1.998 0 0 1 2-2H14c.528 0 1.024.208 1.408.576.368.384.576.88.592 1.424v.992M16 14c0-.544.208-1.04.576-1.424.384-.368.88-.576 1.424-.576h4.992a1.998 1.998 0 0 1 2 2v.992"/>
    </symbol>
    <symbol id="icon-Container-1" viewBox="0 0 32 32">
      <path stroke-linecap="round" stroke-linejoin="round" stroke-width="2.4" d="M22.656 28H24c.704 0 1.376-.288 1.872-.784.512-.512.784-1.184.784-1.888s-.272-1.392-.784-1.888A2.654 2.654 0 0 0 24 22.656h-1.344V28zm0-13.344h2c.528 0 1.04-.208 1.424-.576.368-.384.576-.896.576-1.424s-.208-1.04-.576-1.408a2.011 2.011 0 0 0-1.424-.592h-2v6.672M4.768 8.544c.512.496 1.184.784 1.888.784s1.392-.288 1.888-.784c.496-.496.784-1.184.784-1.888S9.04 5.28 8.544 4.768C8.048 4.272 7.36 4 6.656 4s-1.376.272-1.888.768C4.272 5.28 4 5.952 4 6.656s.272 1.392.768 1.888z"/>
      <path stroke-linecap="round" stroke-linejoin="round" stroke-width="2.4" d="M6.656 9.328v4c0 .352.144.688.4.944.24.24.576.384.944.384h9.328m-5.328 0V24c0 .352.128.688.384.928.256.256.592.4.944.4h4"/>
    </symbol>
    <symbol id="icon-Horizontal-container" viewBox="0 0 32 32">
      <path stroke-linecap="round" stroke-linejoin="round" stroke-width="2.4" d="M25.328 20h-6.672c-.032-4.912.24-9.888 6.672-16v24h-1.344v-4M10.656 5.328V28m-4-22.672v4c0 1.056.416 2.08 1.168 2.832.752.736 1.776 1.168 2.832 1.168s2.08-.432 2.832-1.168a4.009 4.009 0 0 0 1.168-2.832v-4"/>
    </symbol>
    <symbol id="icon-Rating" viewBox="0 0 32 32">
      <path stroke-linecap="round" stroke-linejoin="round" stroke-width="2" d="m5.33 5.33 3.33 3.33m9.34 0a6.605 6.605 0 0 0-4.66-1.88c-1.74 0-3.4.7-4.63 1.93s-1.93 2.89-1.93 4.63c-.01 1.74.66 3.41 1.88 4.66M20 6.66 6.66 20m12 2.66v.02m-5.33-1.35v.01m4-4.01v.01m4-4.01v.01m-6.67 13.32v.02m8-8.02v.02m4-4.02v.02"/>
    </symbol>
    <symbol id="icon-Route" viewBox="0 0 32 32">
      <path d="M6.656 4C5.184 4 4 5.184 4 6.656s1.184 2.672 2.656 2.672c1.472 0 2.672-1.2 2.672-2.672S8.128 4 6.656 4zM1.328 6.656c0-2.944 2.384-5.328 5.328-5.328S12 3.712 12 6.656C12 9.6 9.6 12 6.656 12S1.328 9.6 1.328 6.656zM25.328 22.656c-1.472 0-2.672 1.2-2.672 2.672S23.856 28 25.328 28C26.8 28 28 26.8 28 25.328s-1.2-2.672-2.672-2.672zM20 25.328C20 22.384 22.384 20 25.328 20s5.328 2.384 5.328 5.328c0 2.944-2.384 5.328-5.328 5.328S20 28.272 20 25.328z"/>
      <path d="M13.328 6.656c0-.736.592-1.328 1.328-1.328h8.4c4.128 0 5.616 5.408 1.984 7.424l-15.472 8.8A1.304 1.304 0 0 0 10.256 24h7.072c.736 0 1.328.592 1.328 1.328s-.592 1.328-1.328 1.328h-7.072c-4.128 0-5.616-5.408-1.984-7.424l15.472-8.8C24.912 9.776 24.528 8 23.056 8h-8.4a1.338 1.338 0 0 1-1.328-1.344z"/>
    </symbol>
    <symbol id="icon-Users" viewBox="0 0 32 32">
      <path d="M9.056 24.128h-4.4c-.256 0-.4-.128-.528-.272-.128-.128-.272-.4-.128-.656.8-2.272 2.8-3.6 5.056-3.6 2.8 0 5.072-2.4 5.072-5.2s-2.272-5.472-5.072-5.472c-2.8 0-5.056 2.4-5.056 5.328 0 1.344.528 2.672 1.328 3.6-1.728.944-3.072 2.4-3.872 4.4C1.2 23.2 1.328 24.4 2 25.328c.656.928 1.6 1.472 2.656 1.472h4.4c.8 0 1.344-.544 1.344-1.344s-.544-1.328-1.344-1.328zm-2.4-9.872c0-1.456 1.072-2.528 2.4-2.528 1.344 0 2.4 1.2 2.4 2.528 0 1.472-1.056 2.544-2.4 2.544-1.328 0-2.4-1.2-2.4-2.544z"/>
      <path d="M30.528 21.456c-.928-2.528-2.8-4.4-4.928-5.456 1.2-1.072 1.856-2.672 1.856-4.544C27.456 8 24.8 5.2 21.6 5.2s-5.872 2.8-5.872 6.256A6.36 6.36 0 0 0 17.6 16a9.968 9.968 0 0 0-4.944 5.456c-.656 1.2-.4 2.544.272 3.6.672 1.072 1.872 1.6 3.072 1.6h11.056c1.2 0 2.4-.656 3.072-1.6.8-1.056.928-2.4.4-3.6zM18.256 11.6c0-2 1.472-3.6 3.2-3.6 1.744 0 3.2 1.6 3.2 3.6s-1.456 3.6-3.2 3.6c-1.728 0-3.2-1.744-3.2-3.6zm9.6 12c-.128.128-.4.528-.8.528H16c-.544 0-.8-.4-.8-.528-.144-.144-.4-.672-.144-1.2 1.072-2.8 3.744-4.672 6.544-4.672s5.456 1.872 6.528 4.672c.128.528-.128 1.056-.272 1.2z"/>
    </symbol>
    <symbol id="icon-Vector" viewBox="0 0 32 32">
      <path stroke-linejoin="round" stroke-width="3.2" d="M25.948 3.562a7.811 7.811 0 0 0-2.922-.584 7.851 7.851 0 0 0-2.936.584c-.932.39-1.767.96-2.477 1.67l-1.475 1.475-1.475-1.475a7.656 7.656 0 0 0-10.824 0 7.61 7.61 0 0 0-2.254 5.412 7.61 7.61 0 0 0 2.254 5.412l12.299 12.299 12.299-12.299c.71-.71 1.266-1.558 1.656-2.49s.584-1.92.584-2.922a7.646 7.646 0 0 0-2.24-5.413 7.767 7.767 0 0 0-2.49-1.67z"/>
    </symbol>
    <symbol id="icon-Vector-1" viewBox="0 0 32 32">
      <path d="M15.488 3.2a6.63 6.63 0 0 0-4.112 1.44A6.495 6.495 0 0 0 9.12 8.336l-.112.576a1.036 1.036 0 0 0-.016.384c.032.128.08.256.144.368.08.112.176.208.288.288.112.064.24.128.368.144.128.032.272.032.4 0s.256-.08.368-.16a.882.882 0 0 0 .272-.272c.064-.112.112-.24.144-.368l.112-.576a4.48 4.48 0 0 1 1.744-2.688c.896-.64 2-.944 3.104-.832a4.52 4.52 0 0 1 2.896 1.424A4.53 4.53 0 0 1 20 9.584c0 1.184-.48 2.304-1.328 3.136s-1.984 1.296-3.184 1.296H.992c-.272 0-.512.112-.704.288-.192.192-.288.448-.288.704s.096.512.288.688A.981.981 0 0 0 .992 16h14.496c1.696-.048 3.312-.736 4.496-1.936s1.856-2.8 1.856-4.464c0-1.68-.672-3.28-1.856-4.48S17.2 3.232 15.488 3.2zm11.504 8.848a5.096 5.096 0 0 0-3.536 1.44A4.864 4.864 0 0 0 22 16.976c0 .256.096.512.288.704.192.176.432.288.704.288s.512-.112.704-.288a1.01 1.01 0 0 0 .304-.704c0-.576.16-1.152.496-1.648.336-.48.8-.864 1.344-1.088a3.24 3.24 0 0 1 1.744-.16c.576.112 1.104.4 1.536.8.416.416.704.944.816 1.52s.048 1.168-.176 1.712a3.057 3.057 0 0 1-1.104 1.328 3.07 3.07 0 0 1-1.664.496h-26a.966.966 0 0 0-.704.288.93.93 0 0 0-.288.688c0 .272.096.512.288.704.192.176.432.288.704.288h19.504c.656 0 1.296.256 1.76.72s.736 1.088.736 1.744c0 .656-.272 1.28-.736 1.744-.48.448-1.104.72-1.776.704a2.636 2.636 0 0 1-1.632-.576 2.623 2.623 0 0 1-.864-1.488v-.064a.808.808 0 0 0-.144-.368c-.064-.112-.144-.208-.256-.288s-.24-.128-.368-.16a.839.839 0 0 0-.4-.016.808.808 0 0 0-.368.144c-.112.064-.208.16-.288.256a1.04 1.04 0 0 0-.144.368 1.036 1.036 0 0 0-.016.384l.016.064a4.473 4.473 0 0 0 1.536 2.672A4.626 4.626 0 0 0 20.48 28.8c1.2 0 2.336-.48 3.184-1.312a4.347 4.347 0 0 0 1.328-3.12c0-.912-.272-1.76-.752-2.464h2.752a5.096 5.096 0 0 0 3.536-1.44c.944-.928 1.472-2.176 1.472-3.488s-.528-2.56-1.472-3.488a5.096 5.096 0 0 0-3.536-1.44z"/>
      <path d="M20.544 5.76a6.97 6.97 0 0 0-.56-.64 6.457 6.457 0 0 0-4.496-1.92c-.512 0-1.024.048-1.504.176-.96.224-1.84.656-2.608 1.264-.496.4-.912.864-1.264 1.376A6.396 6.396 0 0 0 9.2 8c-.016.112-.048.224-.08.336l-.112.576a1.036 1.036 0 0 0-.016.384c.032.128.08.256.144.368.08.112.176.208.288.288.112.064.24.128.368.144.128.032.272.032.4 0s.256-.08.368-.16a.882.882 0 0 0 .272-.272c.064-.112.112-.24.144-.368l.112-.576c.048-.256.128-.496.224-.72a4.472 4.472 0 0 1 1.52-1.968s.016 0 .016-.016a4.559 4.559 0 0 1 2.592-.848h.064c.08 0 .176.016.272.016.048 0 .112 0 .16.016a4.52 4.52 0 0 1 2.896 1.424c.048.064.096.112.144.176.448.528.752 1.152.912 1.824.064.304.096.64.112.96 0 .384-.064.768-.16 1.12a4.411 4.411 0 0 1-.528 1.232c-.176.272-.4.544-.64.784a3.964 3.964 0 0 1-.704.576c-.384.24-.8.432-1.248.56-.064.016-.112.032-.176.048-.032 0-.08.016-.112.016a4.609 4.609 0 0 1-.944.096H.992c-.272 0-.512.112-.704.288-.192.192-.288.448-.288.704s.096.512.288.688A.981.981 0 0 0 .992 16h14.496c.112-.016.224-.016.336-.016.064-.016.144-.016.208-.032h.032c.224-.032.464-.064.672-.112a6.51 6.51 0 0 0 3.248-1.776l.16-.16a6.724 6.724 0 0 0 1.248-1.968 6.919 6.919 0 0 0 .432-1.872c0-.16.016-.32.016-.464 0-.72-.128-1.44-.368-2.096a6.102 6.102 0 0 0-.928-1.744zm7.184 6.352a3.706 3.706 0 0 0-.736-.064 5.096 5.096 0 0 0-3.536 1.44c-.128.144-.256.272-.368.416-.064.08-.144.176-.208.272a4.844 4.844 0 0 0-.88 2.8c0 .16.032.32.112.464.048.08.096.16.176.24.128.128.304.208.48.256a.944.944 0 0 0 .224.032c.272 0 .512-.112.704-.288a1.01 1.01 0 0 0 .304-.704c0-.576.16-1.152.496-1.648.112-.16.256-.32.4-.464a3.46 3.46 0 0 1 .944-.624c.432-.16.88-.24 1.328-.208.144 0 .272.016.416.048.48.096.928.304 1.312.608.08.064.144.128.224.192.416.416.704.944.816 1.52.032.192.048.384.064.576v.016a3.06 3.06 0 0 1-.24 1.12c0 .016-.016.032-.016.048a3.048 3.048 0 0 1-.368.624c-.208.24-.448.464-.72.656a2.992 2.992 0 0 1-1.52.48c-.048.016-.096.016-.144.016h-26a.966.966 0 0 0-.704.288.93.93 0 0 0-.288.688c0 .272.096.512.288.704.192.176.432.288.704.288h19.504c.544 0 1.056.176 1.488.48.096.08.192.16.272.24.352.336.576.768.672 1.232a.467.467 0 0 1 .032.144c.016.128.032.24.032.368a2.36 2.36 0 0 1-.592 1.568c-.048.064-.096.112-.144.176-.48.448-1.104.72-1.776.704a2.636 2.636 0 0 1-1.632-.576 2.623 2.623 0 0 1-.864-1.488v-.064a1.086 1.086 0 0 0-.112-.32c0-.016-.016-.032-.032-.048-.064-.112-.144-.208-.256-.288a1 1 0 0 0-.352-.16h-.016c-.064-.016-.128-.032-.192-.032s-.128 0-.208.016a.788.788 0 0 0-.272.096c-.032 0-.064.016-.096.048-.112.064-.208.16-.288.256a1.04 1.04 0 0 0-.144.368 1.036 1.036 0 0 0-.016.384l.016.064a4.473 4.473 0 0 0 1.536 2.672c.08.064.176.128.256.192.768.56 1.712.864 2.672.864.976 0 1.904-.32 2.672-.864.064-.048.112-.096.176-.144.112-.096.24-.192.336-.304.224-.208.4-.432.576-.672a4.363 4.363 0 0 0 .704-3.088.936.936 0 0 0-.032-.208 4.387 4.387 0 0 0-.672-1.616h2.752c1.232 0 2.4-.448 3.312-1.248.08-.064.16-.128.224-.192a4.815 4.815 0 0 0 1.12-1.712A4.75 4.75 0 0 0 32 16.976a4.88 4.88 0 0 0-1.472-3.488 4.49 4.49 0 0 0-1.04-.768 4.76 4.76 0 0 0-1.392-.544c-.112-.032-.24-.048-.368-.064z"/>
    </symbol>
    <symbol id="icon-Vertical-container" viewBox="0 0 32 32">
      <path stroke-linejoin="round" stroke-width="1.8" d="M8 26c-2.22 0-4-1.79-4-4V12c0-2.22 1.78-4 4-4h16c2.21 0 4 1.78 4 4v10c0 2.21-1.79 4-4 4H8z"/>
      <path stroke-linecap="round" stroke-linejoin="round" stroke-width="1.8" d="M12 30h8M16 8l6-6M16 8l-6-6"/>
    </symbol>
    <symbol id="icon-Vertical-container-1" viewBox="0 0 32 32">
      <path d="m26.352 9.632.016-.016-4.96-4.96L20 6.08l2.8 2.8A3.332 3.332 0 0 0 20.656 12c0 .432.096.864.256 1.264.176.416.416.768.72 1.088a3.34 3.34 0 0 0 2.368.976c.48 0 .912-.112 1.328-.288v9.616c0 .352-.144.688-.4.944-.24.256-.576.4-.928.4a1.28 1.28 0 0 1-.944-.4 1.334 1.334 0 0 1-.4-.944v-6A2.651 2.651 0 0 0 20 16h-1.344V6.656A2.651 2.651 0 0 0 16 4H8a2.648 2.648 0 0 0-2.672 2.656V28h13.328V18h2v6.656c0 .88.352 1.728.976 2.352a3.29 3.29 0 0 0 3.632.736 3.356 3.356 0 0 0 1.088-.736c.304-.304.56-.672.72-1.072s.256-.832.256-1.28V12c0-.928-.368-1.776-.976-2.368zM16 18v7.328H8V16h8v2zm0-4.672H8V6.656h8v6.672zm8 0a1.28 1.28 0 0 1-.944-.4 1.27 1.27 0 0 1-.4-.928c0-.368.144-.704.4-.944.24-.256.576-.4.944-.4.352 0 .688.144.928.4.256.24.4.576.4.944 0 .352-.144.688-.4.928-.24.256-.576.4-.928.4z"/>
    </symbol>
  </defs>
</svg>
